<svg xmlns="http://www.w3.org/2000/svg" width="88" height="25" viewBox="0 0 88 25" fill="none">
  <g clip-path="url(#clip0_5469_10097)">
    <path d="M1.59316 24.4682C1.06211 24.4387 0.914592 24.2614 0.737574 23.7592C0.29503 22.5185 0 18.9734 0 14.808C0 10.6425 0.324533 4.40177 1.18012 0.797637C1.26863 0.413589 1.62266 0.265879 1.9472 0.236337C3.65837 0.0590842 5.75308 0 7.84779 0C9.9425 0 11.6242 0.0295421 13.1878 0.206795C13.6894 0.265879 13.7779 0.502216 13.7779 0.797637C13.7779 2.30428 13.1288 8.19793 12.3617 9.73412C12.2732 9.91137 12.0962 10 11.9487 10C11.7422 10 11.5652 9.91137 11.2996 9.79321C10.5621 9.46824 9.73598 9.17282 8.82139 9.17282C8.46735 9.17282 8.11332 9.26145 7.84779 9.52733C7.58226 9.79321 7.40525 10.2068 7.40525 10.8567C7.40525 11.6248 7.87729 11.8316 8.37885 11.8316C9.29344 11.8316 10.09 11.2999 11.8307 11.2999C12.7158 11.2999 13.0698 11.418 13.0698 11.8612C13.0698 13.7223 12.7748 16.7947 12.3617 18.4786C12.3027 18.7149 12.1552 18.774 11.9782 18.774C11.7127 18.774 10.7981 18.5672 9.913 18.5672C8.82139 18.5672 8.14282 18.9217 8.14282 20.0443C8.14282 21.4032 9.08692 23.353 9.08692 23.8552C9.08692 24.2393 8.82139 24.4165 8.29034 24.4756C7.9068 24.5052 6.46115 24.5347 5.01551 24.5347C3.56986 24.5347 2.12421 24.5052 1.59316 24.4756V24.4682Z" fill="#231F20"/>
    <path d="M21.9209 24.4682C21.0063 24.5273 19.9147 24.5569 18.7936 24.5569C17.6724 24.5569 16.6103 24.5273 15.6662 24.4682C15.3712 24.4387 14.8992 24.291 14.8402 23.6115C14.6041 21.1891 14.5156 18.353 14.5156 15.3988C14.5156 10.5834 14.8107 5.38404 15.4302 1.07089C15.5187 0.450509 15.9023 0.332341 16.2858 0.302799C17.1709 0.243714 18.056 0.214172 18.9411 0.214172C19.8262 0.214172 20.7408 0.243714 21.5963 0.302799C22.0684 0.332341 22.3634 0.509593 22.3634 0.923183C22.3634 1.4254 21.8029 7.15657 21.8029 11.7651C21.8029 17.1123 22.5109 22.9911 22.5109 23.8479C22.5109 24.2319 22.2454 24.4387 21.9209 24.4682Z" fill="#231F20"/>
    <path d="M23.1304 14.9926C23.1304 9.08419 25.7856 5.12555 31.0962 5.12555C36.4067 5.12555 38.5309 8.93648 38.5309 14.9926C38.5309 21.935 34.9611 24.9188 30.6241 24.9188C26.2872 24.9188 23.1304 21.935 23.1304 14.9926ZM32.0698 14.4609C32.0698 11.6248 31.6272 10.5022 30.8011 10.5022C29.9751 10.5022 29.5325 11.6248 29.5325 14.4609C29.5325 17.2969 29.8866 18.5081 30.8011 18.5081C31.7157 18.5081 32.0698 17.3264 32.0698 14.4609Z" fill="#231F20"/>
    <path d="M46.6739 0.369265C47.1459 0.398807 47.5 0.516975 47.5 0.930565C47.5 1.3737 46.5264 5.59822 46.5264 6.75036C46.5264 7.01624 46.6739 7.13441 46.8509 7.13441C47.0279 7.13441 47.1164 7.04578 47.2345 6.86853C47.9425 5.95272 48.7981 5.15508 50.3323 5.15508C53.1646 5.15508 55.2888 8.22746 55.2888 13.9291C55.2888 20.517 52.5745 24.6529 45.9363 24.6529C43.9006 24.6529 42.0124 24.2393 40.9798 23.8552C40.3898 23.6189 40.0947 23.2053 40.0062 22.7326C39.7702 21.4919 39.5342 18.7444 39.5342 15.2585C39.5342 7.75479 40.0062 4.20974 40.3898 1.52141C40.5078 0.72377 40.7143 0.487433 41.4519 0.428349C42.4845 0.339723 43.5761 0.310181 44.6677 0.310181C45.3758 0.310181 46.0543 0.339723 46.6739 0.369265ZM47.1164 10.4136C46.9689 10.4136 46.8804 10.4431 46.7624 10.5613C46.4379 10.9158 46.2904 11.9202 46.2904 14.1359C46.2904 19.0399 46.6739 19.808 47.323 19.808C48.0605 19.808 48.4736 18.065 48.4736 15.0221C48.4736 11.5953 47.8835 10.4136 47.1164 10.4136Z" fill="#231F20"/>
    <path d="M63.4312 0.369265C63.9033 0.398807 64.2573 0.516975 64.2573 0.930565C64.2573 1.3737 63.2837 5.59822 63.2837 6.75036C63.2837 7.01624 63.4312 7.13441 63.6082 7.13441C63.7853 7.13441 63.8738 7.04578 63.9918 6.86853C64.6999 5.95272 65.5554 5.15508 67.0896 5.15508C69.9219 5.15508 72.0461 8.22746 72.0461 13.9291C72.0461 20.517 69.3318 24.6529 62.6936 24.6529C60.6579 24.6529 58.7698 24.2393 57.7371 23.8552C57.1471 23.6189 56.8521 23.2053 56.7636 22.7326C56.5275 21.4919 56.2915 18.7444 56.2915 15.2585C56.2915 7.75479 56.7636 4.20974 57.1471 1.52141C57.2651 0.72377 57.4716 0.487433 58.2092 0.428349C59.2418 0.339723 60.3334 0.310181 61.425 0.310181C62.1331 0.310181 62.8117 0.339723 63.4312 0.369265ZM63.8738 10.4136C63.7263 10.4136 63.6377 10.4431 63.5197 10.5613C63.1952 10.9158 63.0477 11.9202 63.0477 14.1359C63.0477 19.0399 63.4312 19.808 64.0803 19.808C64.8179 19.808 65.2309 18.065 65.2309 15.0221C65.2309 11.5953 64.6408 10.4136 63.8738 10.4136Z" fill="#231F20"/>
    <path d="M73.6098 17.7105C74.0819 17.7105 75.026 18.0945 75.8816 18.3309C76.7666 18.5968 77.5632 18.7149 77.5632 18.1241C77.5632 17.9173 77.3862 17.74 77.1207 17.5923C74.1409 15.8789 72.8132 13.5746 72.8132 6.54359C72.8132 5.83458 73.1378 5.62778 73.9344 5.5687C74.6424 5.50961 75.439 5.48007 76.3241 5.48007C77.2682 5.48007 78.3008 5.50961 79.2744 5.5687C79.6284 5.59824 79.953 5.68687 79.953 6.07091C79.953 6.45496 79.8054 7.57756 79.8054 8.75924C79.8054 11.034 80.13 14.2541 80.8676 14.2541C80.9856 14.2541 81.1331 14.1654 81.1921 13.9587C81.4871 13.1019 81.6346 11.418 81.6346 9.76368C81.6346 8.10932 81.3691 6.51405 81.3691 6.15954C81.3691 5.77549 81.7231 5.59824 82.0182 5.5687C82.6377 5.50961 83.5818 5.48007 84.4669 5.48007C85.352 5.48007 86.2371 5.50961 86.7091 5.5687C87.6827 5.71641 88.0073 6.4845 88.0073 7.48893C88.0073 17.74 86.2666 25.0074 73.9344 25.0074C72.9608 25.0074 72.7542 24.6234 72.6952 23.8848C72.6657 23.3826 72.6362 22.7917 72.6362 22.1123C72.6362 20.9601 72.6952 19.6603 72.8132 18.5377C72.8427 18.0355 73.1673 17.7105 73.6098 17.7105Z" fill="#231F20"/>
  </g>
  <defs>
    <clipPath id="clip0_5469_10097">
      <rect width="88" height="25" fill="white"/>
    </clipPath>
  </defs>
</svg>