<svg width="40" height="40" viewBox="0 0 40 40" fill="none" xmlns="http://www.w3.org/2000/svg">
<path d="M40 20C40 31.0457 31.0457 40 20 40C8.9543 40 0 31.0457 0 20C0 8.9543 8.9543 0 20 0C31.0457 0 40 8.9543 40 20ZM6 20C6 27.732 12.268 34 20 34C27.732 34 34 27.732 34 20C34 12.268 27.732 6 20 6C12.268 6 6 12.268 6 20Z" fill="#EAE4FE"/>
<path d="M37.408 29.8469C34.7964 34.4638 30.4578 37.8542 25.3465 39.2721C20.2352 40.6901 14.7699 40.0196 10.1531 37.408L13.1071 32.1856C16.339 34.0137 20.1646 34.4831 23.7425 33.4905C27.3204 32.4979 30.3575 30.1247 32.1856 26.8929L37.408 29.8469Z" fill="#764BF6"/>
</svg>
