<svg width="28" height="29" viewBox="0 0 28 29" fill="none" xmlns="http://www.w3.org/2000/svg">
<rect opacity="0.4" y="15.6641" width="2.33333" height="7" rx="1.16667" transform="rotate(-90 0 15.6641)" fill="#252D54" fill-opacity="0.38"/>
<rect opacity="0.8" x="21" y="15.6641" width="2.33333" height="7" rx="1.16667" transform="rotate(-90 21 15.6641)" fill="#252D54" fill-opacity="0.38"/>
<rect opacity="0.6" x="15.167" y="28.5" width="2.33333" height="7" rx="1.16667" transform="rotate(180 15.167 28.5)" fill="#252D54" fill-opacity="0.38"/>
<rect x="15.1675" y="7.5" width="2.33333" height="7" rx="1.16667" transform="rotate(180 15.1675 7.5)" fill="#252D54" fill-opacity="0.38"/>
<rect opacity="0.5" x="4.92334" y="25.2227" width="2.33333" height="7" rx="1.16667" transform="rotate(-135 4.92334 25.2227)" fill="#252D54" fill-opacity="0.38"/>
<rect opacity="0.9" x="19.7744" y="10.375" width="2.33333" height="7" rx="1.16667" transform="rotate(-135 19.7744 10.375)" fill="#252D54" fill-opacity="0.38"/>
<rect opacity="0.7" x="24.7236" y="23.5742" width="2.33333" height="7" rx="1.16667" transform="rotate(135 24.7236 23.5742)" fill="#252D54" fill-opacity="0.38"/>
<rect opacity="0.3" x="9.87305" y="8.72656" width="2.33333" height="7" rx="1.16667" transform="rotate(135 9.87305 8.72656)" fill="#252D54" fill-opacity="0.38"/>
</svg>
