<svg xmlns="http://www.w3.org/2000/svg" width="26" height="28" viewBox="0 0 26 28" fill="none">
  <path d="M22.0076 17.7463C22.0035 17.7463 22.0002 17.7429 22.0002 17.7388V9.5C22.0002 4.55 17.9502 0.5 13.0002 0.5C8.05016 0.5 4.00016 4.55 4.00016 9.5V17.1062C4.00016 17.5225 3.87026 17.9284 3.62857 18.2674L2.50801 19.8388C1.56398 21.1627 2.51041 23 4.13642 23H21.8751C23.5011 23 24.4476 21.1627 23.5036 19.8388L22.0136 17.7494C22.0122 17.7474 22.01 17.7463 22.0076 17.7463Z" fill="#454C53"/>
  <circle cx="22" cy="5" r="4" fill="#F94E51"/>
  <path d="M13.0003 27.5C14.3121 27.5 15.4328 26.6576 15.8402 25.4782C16.0205 24.9562 15.5563 24.4962 15.0041 24.4962H11.0078C10.4555 24.4962 9.99159 24.9562 10.1721 25.4781C10.5781 26.6526 11.6924 27.5 13.0116 27.5" fill="#454C53"/>
</svg>