<svg width="24" height="22" viewBox="0 0 24 22" fill="none" xmlns="http://www.w3.org/2000/svg">
<path d="M11.999 1.5C16.0046 1.50016 19.292 4.79362 19.292 8.82031V16.4365C19.292 16.6902 19.3861 16.9216 19.541 17.0986L20.6934 18.7207C21.1639 19.3828 20.6911 20.2997 19.8789 20.2998H4.12891C3.31671 20.2997 2.8439 19.3828 3.31445 18.7207L4.15137 17.543C4.51219 17.0353 4.70605 16.4275 4.70605 15.8047V8.82031C4.70605 4.79352 7.99329 1.5 11.999 1.5ZM20.0723 17.416C20.0628 17.4138 20.0533 17.4117 20.0439 17.4092C20.0533 17.4116 20.0628 17.4138 20.0723 17.416Z" stroke="#454C53" stroke-width="2"/>
<path d="M11.999 1.5C16.0046 1.50016 19.292 4.79362 19.292 8.82031V16.4365C19.292 16.6902 19.3861 16.9216 19.541 17.0986L20.6934 18.7207C21.1639 19.3828 20.6911 20.2997 19.8789 20.2998H4.12891C3.31671 20.2997 2.8439 19.3828 3.31445 18.7207L4.15137 17.543C4.51219 17.0353 4.70605 16.4275 4.70605 15.8047V8.82031C4.70605 4.79352 7.99329 1.5 11.999 1.5ZM20.0723 17.416C20.0628 17.4138 20.0533 17.4117 20.0439 17.4092C20.0533 17.4116 20.0628 17.4138 20.0723 17.416Z" stroke="black" stroke-opacity="0.2" stroke-width="2"/>
<circle cx="20" cy="5" r="4" fill="#F94E51"/>
</svg>
