<svg width="26" height="23" viewBox="0 0 26 23" fill="none" xmlns="http://www.w3.org/2000/svg">
<path d="M13.1078 21.9939C13.11 21.995 13.112 21.9921 13.1103 21.9904L2.90777 11.9518C0.364077 9.44724 0.364077 5.38297 2.90777 2.87841C5.45146 0.373862 9.5784 0.373862 12.1221 2.87841L12.3451 3.09795C12.7706 3.51669 13.4536 3.51576 13.8779 3.09588V3.09588C16.4216 0.591324 20.5485 0.591324 23.0922 3.09588C25.6359 5.60043 25.6359 9.6647 23.0922 12.1693L13.1072 21.9904C13.1062 21.9914 13.1064 21.9932 13.1078 21.9939V21.9939Z" stroke="#454C53" stroke-width="2" stroke-linecap="round" stroke-linejoin="round"/>
<path d="M13.1078 21.9939C13.11 21.995 13.112 21.9921 13.1103 21.9904L2.90777 11.9518C0.364077 9.44724 0.364077 5.38297 2.90777 2.87841C5.45146 0.373862 9.5784 0.373862 12.1221 2.87841L12.3451 3.09795C12.7706 3.51669 13.4536 3.51576 13.8779 3.09588V3.09588C16.4216 0.591324 20.5485 0.591324 23.0922 3.09588C25.6359 5.60043 25.6359 9.6647 23.0922 12.1693L13.1072 21.9904C13.1062 21.9914 13.1064 21.9932 13.1078 21.9939V21.9939Z" stroke="black" stroke-opacity="0.2" stroke-width="2" stroke-linecap="round" stroke-linejoin="round"/>
</svg>
