<svg width="22" height="22" viewBox="0 0 22 22" fill="none" xmlns="http://www.w3.org/2000/svg">
<rect width="22" height="22" rx="11" fill="#191919"/>
<path d="M10.5541 12.2462H11.8777L12.7559 13.4044C13.3414 12.8188 13.7105 11.8949 13.7105 10.6326C13.7105 8.40741 12.5523 7.1842 11.0122 7.19721C9.45949 7.1842 8.31402 8.40741 8.31402 10.6326C8.31402 12.8708 9.45949 14.081 11.0122 14.0941C11.2922 14.0941 11.5722 14.042 11.8268 13.9639L10.5541 12.2462ZM6.93945 10.6326C6.95218 7.6917 8.67039 5.90893 11.0122 5.92195C13.3414 5.90893 15.0596 7.6917 15.0596 10.6326C15.0596 12.3373 14.4868 13.6386 13.5705 14.4454L14.7796 16.072H13.3795L12.6159 15.044C12.1323 15.2652 11.585 15.3693 11.0122 15.3693C8.67039 15.3693 6.95218 13.5735 6.93945 10.6326Z" fill="white"/>
</svg>
