<svg width="24" height="24" viewBox="0 0 24 24" fill="none" xmlns="http://www.w3.org/2000/svg">
<mask id="path-1-outside-1_12814_5104" maskUnits="userSpaceOnUse" x="1.02734" y="11" width="16" height="8" fill="black">
<rect fill="white" x="1.02734" y="11" width="16" height="8"/>
<path d="M9.02734 12C12.0372 12 14.5355 14.1645 15.0154 17.0043C15.1074 17.5489 14.6509 18 14.0986 18H3.95605C3.40377 18 2.94724 17.5489 3.03927 17.0043C3.51921 14.1645 6.01747 12 9.02734 12Z"/>
</mask>
<path d="M9.02734 12C12.0372 12 14.5355 14.1645 15.0154 17.0043C15.1074 17.5489 14.6509 18 14.0986 18H3.95605C3.40377 18 2.94724 17.5489 3.03927 17.0043C3.51921 14.1645 6.01747 12 9.02734 12Z" fill="#72787F"/>
<path d="M9.02734 12V11H9.02734L9.02734 12ZM9.02734 12V13C11.5497 13 13.6309 14.8127 14.0294 17.1709L15.0154 17.0043L16.0014 16.8377C15.4401 13.5162 12.5248 11 9.02734 11V12ZM14.0986 18V17H3.95605V18V19H14.0986V18ZM3.03927 17.0043L4.02529 17.1709C4.42383 14.8127 6.505 13 9.02735 13L9.02734 12L9.02734 11C5.52994 11 2.61458 13.5162 2.05325 16.8377L3.03927 17.0043ZM3.95605 18V17C3.9508 17 3.96188 16.9974 3.98134 17.0179C3.99235 17.0295 4.00728 17.0503 4.01741 17.0816C4.02816 17.1148 4.02928 17.1473 4.02529 17.1709L3.03927 17.0043L2.05325 16.8377C1.83875 18.1069 2.90681 19 3.95605 19V18ZM15.0154 17.0043L14.0294 17.1709C14.0254 17.1473 14.0265 17.1148 14.0373 17.0816C14.0474 17.0503 14.0623 17.0295 14.0733 17.0179C14.0928 16.9974 14.1039 17 14.0986 17V18V19C15.1479 19 16.2159 18.1069 16.0014 16.8377L15.0154 17.0043Z" fill="white" mask="url(#path-1-outside-1_12814_5104)"/>
<circle cx="9.02832" cy="7" r="3.5" fill="#72787F" stroke="white"/>
<mask id="path-4-outside-2_12814_5104" maskUnits="userSpaceOnUse" x="7.0293" y="11" width="16" height="8" fill="black">
<rect fill="white" x="7.0293" y="11" width="16" height="8"/>
<path d="M15.0293 12C18.0392 12 20.5374 14.1645 21.0174 17.0043C21.1094 17.5489 20.6529 18 20.1006 18H9.95801C9.40572 18 8.94919 17.5489 9.04122 17.0043C9.52116 14.1645 12.0194 12 15.0293 12Z"/>
</mask>
<path d="M15.0293 12C18.0392 12 20.5374 14.1645 21.0174 17.0043C21.1094 17.5489 20.6529 18 20.1006 18H9.95801C9.40572 18 8.94919 17.5489 9.04122 17.0043C9.52116 14.1645 12.0194 12 15.0293 12Z" fill="#72787F"/>
<path d="M15.0293 12V11H15.0293L15.0293 12ZM15.0293 12V13C17.5517 13 19.6328 14.8127 20.0314 17.1709L21.0174 17.0043L22.0034 16.8377C21.4421 13.5162 18.5267 11 15.0293 11V12ZM20.1006 18V17H9.95801V18V19H20.1006V18ZM9.04122 17.0043L10.0272 17.1709C10.4258 14.8127 12.507 13 15.0293 13L15.0293 12L15.0293 11C11.5319 11 8.61654 13.5162 8.05521 16.8377L9.04122 17.0043ZM9.95801 18V17C9.95275 17 9.96383 16.9974 9.98329 17.0179C9.9943 17.0295 10.0092 17.0503 10.0194 17.0816C10.0301 17.1148 10.0312 17.1473 10.0272 17.1709L9.04122 17.0043L8.05521 16.8377C7.8407 18.1069 8.90877 19 9.95801 19V18ZM21.0174 17.0043L20.0314 17.1709C20.0274 17.1473 20.0285 17.1148 20.0392 17.0816C20.0494 17.0503 20.0643 17.0295 20.0753 17.0179C20.0948 16.9974 20.1058 17 20.1006 17V18V19C21.1498 19 22.2179 18.1069 22.0034 16.8377L21.0174 17.0043Z" fill="white" mask="url(#path-4-outside-2_12814_5104)"/>
<circle cx="15.0283" cy="7" r="3.5" fill="#72787F" stroke="white"/>
</svg>
