<svg width="24" height="24" viewBox="0 0 24 24" fill="none" xmlns="http://www.w3.org/2000/svg">
<path d="M12 3C15.866 3 19 6.18718 19 10.1182C18.9995 13.3065 14.3951 18.0536 12.6553 19.7334C12.2872 20.0888 11.7128 20.0888 11.3447 19.7334C9.6049 18.0536 5.00047 13.3065 5 10.1182C5 6.18718 8.13401 3 12 3ZM11.957 7.60254C10.6894 7.60257 9.66211 8.63082 9.66211 9.89844C9.66221 11.166 10.6895 12.1933 11.957 12.1934C13.2246 12.1934 14.2519 11.166 14.252 9.89844C14.252 8.6308 13.2247 7.60254 11.957 7.60254Z" fill="#72787F"/>
</svg>
