<svg width="48" height="48" viewBox="0 0 48 48" fill="none" xmlns="http://www.w3.org/2000/svg">
<circle cx="24" cy="24" r="24" fill="black"/>
<g clip-path="url(#clip0_791_1692)">
<path d="M32.6189 29.3695C32.2906 30.1045 31.9094 30.7765 31.4647 31.396C30.8612 32.2465 30.3636 32.824 29.9824 33.1495C29.3894 33.685 28.7541 33.958 28.0765 33.9685C27.5894 33.9685 27.0071 33.832 26.3188 33.559C25.6306 33.286 25.0059 33.1495 24.4236 33.1495C23.82 33.1495 23.1741 33.286 22.4753 33.559C21.7765 33.832 21.2259 33.979 20.7918 33.9895C20.1459 34.021 19.4894 33.7375 18.8436 33.1495C18.4306 32.7925 17.9118 32.194 17.2977 31.333C16.6306 30.4195 16.0906 29.3485 15.6565 28.141C15.2012 26.8285 14.9683 25.558 14.9683 24.3295C14.9683 22.9225 15.2753 21.7045 15.9 20.686C16.3871 19.867 17.033 19.2265 17.8483 18.754C18.6636 18.2815 19.5318 18.04 20.4847 18.0295C21.0036 18.0295 21.6812 18.187 22.5177 18.4915C23.3541 18.796 23.8941 18.9535 24.1271 18.9535C24.3071 18.9535 24.9 18.775 25.9165 18.4075C26.88 18.0715 27.6847 17.9245 28.3518 17.9875C30.1518 18.1345 31.4965 18.8275 32.3965 20.077C30.7871 21.0325 29.993 22.3765 30.0141 24.0985C30.0247 25.4425 30.5224 26.5555 31.4965 27.4375C31.9412 27.847 32.4283 28.162 32.9789 28.393C32.8624 28.729 32.7353 29.0545 32.5977 29.3695H32.6189ZM28.5 13.42C28.5 14.47 28.1083 15.4465 27.3353 16.36C26.393 17.4415 25.26 18.061 24.0318 17.9665C24.0212 17.8405 24.0106 17.704 24.0106 17.5675C24.0106 16.5595 24.4553 15.478 25.2494 14.596C25.6412 14.1445 26.1494 13.777 26.7636 13.483C27.3777 13.189 27.9494 13.0315 28.4894 13C28.5 13.1365 28.5106 13.2835 28.5106 13.42H28.5Z" fill="white"/>
</g>
<defs>
<clipPath id="clip0_791_1692">
<rect width="18" height="21" fill="white" transform="translate(15 13)"/>
</clipPath>
</defs>
</svg>
