<svg width="40" height="40" viewBox="0 0 40 40" fill="none" xmlns="http://www.w3.org/2000/svg">
<mask id="mask0_6893_4730" style="mask-type:alpha" maskUnits="userSpaceOnUse" x="0" y="0" width="40" height="40">
<rect width="40" height="40" fill="#D9D9D9"/>
</mask>
<g mask="url(#mask0_6893_4730)">
<path d="M3.33398 40V35.795H36.6673V40H3.33398ZM9.59482 27.7446H11.4077L26.8477 12.3129L25.9411 11.39L25.0265 10.4917L9.59482 25.9209V27.7446ZM7.50065 29.8388V25.06L27.1194 5.45003C27.3308 5.23836 27.5663 5.08378 27.8261 4.98628C28.0855 4.88878 28.349 4.84003 28.6165 4.84003C28.8765 4.84003 29.1384 4.88878 29.4023 4.98628C29.6659 5.08378 29.9007 5.24114 30.1065 5.45836L31.8894 7.23961C32.0997 7.43961 32.2568 7.67183 32.3607 7.93628C32.4645 8.201 32.5165 8.46753 32.5165 8.73586C32.5165 8.99447 32.4637 9.25447 32.3582 9.51586C32.2526 9.77725 32.0963 10.0149 31.8894 10.2288L12.2686 29.8388H7.50065ZM26.8477 12.3129L25.9411 11.39L25.0265 10.4917L26.8477 12.3129Z" fill="white"/>
</g>
</svg>
