<svg width="40" height="40" viewBox="0 0 40 40" fill="none" xmlns="http://www.w3.org/2000/svg">
<mask id="mask0_6893_19267" style="mask-type:alpha" maskUnits="userSpaceOnUse" x="0" y="0" width="40" height="40">
<rect width="40" height="40" fill="#D9D9D9"/>
</mask>
<g mask="url(#mask0_6893_19267)">
<path d="M0.833984 29.6475V27.8183C0.833984 26.77 1.39523 25.9082 2.51773 25.2329C3.64023 24.5576 5.10343 24.22 6.90732 24.22C7.19954 24.22 7.49815 24.2297 7.80315 24.2491C8.10787 24.2683 8.41482 24.3025 8.72398 24.3516C8.48898 24.8244 8.31176 25.3047 8.19232 25.7925C8.07315 26.2803 8.01357 26.78 8.01357 27.2916V29.6475H0.833984ZM10.834 29.6475V27.3558C10.834 26.5755 11.053 25.8623 11.4911 25.2162C11.9291 24.5698 12.5605 24.0064 13.3852 23.5258C14.21 23.045 15.1844 22.6844 16.3086 22.4441C17.4325 22.2036 18.6611 22.0833 19.9944 22.0833C21.3533 22.0833 22.5947 22.2036 23.7186 22.4441C24.8425 22.6844 25.8168 23.045 26.6415 23.5258C27.4665 24.0064 28.0937 24.5698 28.5232 25.2162C28.9526 25.8623 29.1673 26.5755 29.1673 27.3558V29.6475H10.834ZM31.9877 29.6475V27.2966C31.9877 26.7547 31.9341 26.2407 31.8269 25.7546C31.7197 25.2687 31.5497 24.8018 31.3169 24.3537C31.6438 24.3032 31.9551 24.2683 32.2507 24.2491C32.5462 24.2297 32.8361 24.22 33.1202 24.22C34.9266 24.22 36.3861 24.5521 37.4986 25.2162C38.6111 25.8804 39.1673 26.7478 39.1673 27.8183V29.6475H31.9877ZM12.9602 27.5533H27.0498V27.2533C27.0143 26.3508 26.3405 25.6125 25.0286 25.0383C23.7166 24.4644 22.0407 24.1775 20.0007 24.1775C17.9679 24.1775 16.2937 24.4644 14.9782 25.0383C13.6626 25.6125 12.99 26.3565 12.9602 27.2704V27.5533ZM6.88065 22.8046C6.15593 22.8046 5.53593 22.5453 5.02065 22.0266C4.5051 21.5083 4.24732 20.8844 4.24732 20.155C4.24732 19.4241 4.50662 18.8025 5.02523 18.29C5.54357 17.7778 6.16746 17.5216 6.8969 17.5216C7.62773 17.5216 8.25204 17.7778 8.76982 18.29C9.2876 18.8025 9.54648 19.4297 9.54648 20.1716C9.54648 20.8855 9.29051 21.5029 8.77857 22.0237C8.26662 22.5443 7.63398 22.8046 6.88065 22.8046ZM33.1082 22.8046C32.3912 22.8046 31.7725 22.5436 31.2519 22.0216C30.7311 21.5 30.4707 20.8793 30.4707 20.1596C30.4707 19.4257 30.7316 18.8025 31.2536 18.29C31.7752 17.7778 32.3986 17.5216 33.1236 17.5216C33.8627 17.5216 34.4886 17.7778 35.0011 18.29C35.5136 18.8025 35.7698 19.4282 35.7698 20.1671C35.7698 20.8907 35.5143 21.5112 35.0032 22.0287C34.492 22.546 33.8604 22.8046 33.1082 22.8046ZM20.0065 20.8333C18.8059 20.8333 17.7837 20.4126 16.9398 19.5712C16.0959 18.7301 15.674 17.7086 15.674 16.5066C15.674 15.2805 16.0945 14.2529 16.9357 13.4237C17.777 12.5943 18.7987 12.1796 20.0007 12.1796C21.2265 12.1796 22.2541 12.5937 23.0836 13.4221C23.9127 14.2501 24.3273 15.2764 24.3273 16.5008C24.3273 17.7011 23.9133 18.7233 23.0852 19.5675C22.2569 20.4114 21.2307 20.8333 20.0065 20.8333ZM20.0186 18.7396C20.6455 18.7396 21.1715 18.5229 21.5965 18.0896C22.0212 17.6565 22.2336 17.1229 22.2336 16.4887C22.2336 15.8618 22.0204 15.3358 21.594 14.9108C21.1679 14.4861 20.64 14.2737 20.0102 14.2737C19.3869 14.2737 18.8573 14.4868 18.4215 14.9129C17.9857 15.3393 17.7677 15.8672 17.7677 16.4966C17.7677 17.12 17.9843 17.6496 18.4173 18.0854C18.8507 18.5215 19.3844 18.7396 20.0186 18.7396Z" fill="#764BF6"/>
</g>
</svg>
