<svg width="18" height="18" viewBox="0 0 18 18" fill="none" xmlns="http://www.w3.org/2000/svg">
<path d="M2.30775 17.5C1.80258 17.5 1.375 17.325 1.025 16.975C0.675 16.625 0.5 16.1974 0.5 15.6923V2.30775C0.5 1.80258 0.675 1.375 1.025 1.025C1.375 0.675 1.80258 0.5 2.30775 0.5H15.6923C16.1974 0.5 16.625 0.675 16.975 1.025C17.325 1.375 17.5 1.80258 17.5 2.30775V15.6923C17.5 16.1974 17.325 16.625 16.975 16.975C16.625 17.325 16.1974 17.5 15.6923 17.5H2.30775ZM2.30775 16H5.452V11.3463H5.125C4.86083 11.3463 4.641 11.2584 4.4655 11.0828C4.28983 10.9071 4.202 10.6872 4.202 10.423V2H2.30775C2.21792 2 2.14417 2.02883 2.0865 2.0865C2.02883 2.14417 2 2.21792 2 2.30775V15.6923C2 15.7821 2.02883 15.8558 2.0865 15.9135C2.14417 15.9712 2.21792 16 2.30775 16ZM12.548 16H15.6923C15.7821 16 15.8558 15.9712 15.9135 15.9135C15.9712 15.8558 16 15.7821 16 15.6923V2.30775C16 2.21792 15.9712 2.14417 15.9135 2.0865C15.8558 2.02883 15.7821 2 15.6923 2H13.798V10.423C13.798 10.6872 13.7102 10.9071 13.5345 11.0828C13.359 11.2584 13.1392 11.3463 12.875 11.3463H12.548V16ZM6.64425 16H11.3558V11.3463H11.0288C10.7648 11.3463 10.5449 11.2584 10.3693 11.0828C10.1936 10.9071 10.1058 10.6872 10.1058 10.423V2H7.89425V10.423C7.89425 10.6872 7.80642 10.9071 7.63075 11.0828C7.45508 11.2584 7.23525 11.3463 6.97125 11.3463H6.64425V16Z" fill="#191919"/>
</svg>
