<svg width="20" height="20" viewBox="0 0 20 20" fill="none" xmlns="http://www.w3.org/2000/svg">
<path d="M2.03075 9.25H5.1885C5.10767 8.53983 4.90958 7.86325 4.59425 7.22025C4.27892 6.57725 3.87575 6.01025 3.38475 5.51925C3.01408 6.06025 2.71183 6.64325 2.478 7.26825C2.244 7.89325 2.09492 8.55383 2.03075 9.25ZM14.8115 9.25H17.9693C17.9051 8.56033 17.756 7.90458 17.522 7.28275C17.2882 6.66092 16.9859 6.0795 16.6152 5.5385C16.1051 6.03583 15.6971 6.60117 15.3913 7.2345C15.0856 7.868 14.8923 8.53983 14.8115 9.25ZM3.38475 14.4615C3.87575 13.9642 4.27892 13.3988 4.59425 12.7655C4.90958 12.132 5.10767 11.4602 5.1885 10.75H2.03075C2.10125 11.4462 2.25192 12.1035 2.48275 12.722C2.71342 13.3407 3.01408 13.9205 3.38475 14.4615ZM16.6152 14.4615C16.9859 13.9205 17.2882 13.3391 17.522 12.7172C17.756 12.0954 17.9051 11.4397 17.9693 10.75H14.8115C14.8923 11.4602 15.0856 12.132 15.3913 12.7655C15.6971 13.3988 16.1051 13.9642 16.6152 14.4615ZM6.71925 9.25H9.25V2.03075C8.28333 2.13208 7.38075 2.38275 6.54225 2.78275C5.70375 3.18275 4.96533 3.71283 4.327 4.373C4.98983 5.02567 5.52892 5.76417 5.94425 6.5885C6.35958 7.41283 6.61792 8.3 6.71925 9.25ZM10.75 9.25H13.2807C13.3821 8.3 13.6388 7.40958 14.051 6.57875C14.4632 5.74808 15.0038 5.01283 15.673 4.373C15.0347 3.71283 14.2963 3.18275 13.4578 2.78275C12.6193 2.38275 11.7167 2.13208 10.75 2.03075V9.25ZM9.25 17.9693V10.75H6.71925C6.61792 11.7128 6.36117 12.6032 5.949 13.4212C5.53683 14.2391 4.99617 14.9679 4.327 15.6077C4.96533 16.2679 5.70058 16.8013 6.53275 17.2078C7.36475 17.6141 8.2705 17.8679 9.25 17.9693ZM10.75 17.9693C11.7167 17.8679 12.6193 17.6173 13.4578 17.2173C14.2963 16.8173 15.0347 16.2872 15.673 15.627C15.0038 14.9872 14.4632 14.2551 14.051 13.4307C13.6388 12.6064 13.3821 11.7128 13.2807 10.75H10.75V17.9693ZM10 19.5C8.68717 19.5 7.45292 19.2503 6.29725 18.751C5.14142 18.2517 4.13592 17.5744 3.28075 16.7193C2.42558 15.8641 1.74833 14.8586 1.249 13.7028C0.749667 12.5471 0.5 11.3128 0.5 10C0.5 8.68717 0.749667 7.45292 1.249 6.29725C1.74833 5.14142 2.42558 4.13592 3.28075 3.28075C4.13592 2.42558 5.14142 1.74833 6.29725 1.249C7.45292 0.749667 8.68717 0.5 10 0.5C11.3128 0.5 12.5471 0.749667 13.7028 1.249C14.8586 1.74833 15.8641 2.42558 16.7193 3.28075C17.5744 4.13592 18.2517 5.14142 18.751 6.29725C19.2503 7.45292 19.5 8.68717 19.5 10C19.5 11.3128 19.2503 12.5471 18.751 13.7028C18.2517 14.8586 17.5744 15.8641 16.7193 16.7193C15.8641 17.5744 14.8586 18.2517 13.7028 18.751C12.5471 19.2503 11.3128 19.5 10 19.5Z" fill="#191919"/>
</svg>
