<svg width="16" height="20" viewBox="0 0 16 20" fill="none" xmlns="http://www.w3.org/2000/svg">
<path d="M3.55775 19.5C2.71292 19.5 1.99208 19.2016 1.39525 18.6047C0.798417 18.0079 0.5 17.2871 0.5 16.4423V3.75C0.5 2.8475 0.816 2.08017 1.448 1.448C2.08017 0.816 2.8475 0.5 3.75 0.5H15.5V14.8845C15.0705 14.8845 14.7035 15.0368 14.399 15.3413C14.0945 15.6458 13.9423 16.0128 13.9423 16.4423C13.9423 16.8717 14.0945 17.2387 14.399 17.5432C14.7035 17.8477 15.0705 18 15.5 18V19.5H3.55775ZM2 13.8443C2.227 13.6891 2.47025 13.5737 2.72975 13.498C2.98942 13.4225 3.26542 13.3848 3.55775 13.3848H4.19225V2H3.75C3.26917 2 2.85733 2.1715 2.5145 2.5145C2.1715 2.85733 2 3.26917 2 3.75V13.8443ZM5.69225 13.3848H14V2H5.69225V13.3848ZM3.55775 18H12.902C12.757 17.773 12.6442 17.5323 12.5635 17.278C12.4827 17.0235 12.4423 16.7449 12.4423 16.4423C12.4423 16.1564 12.4801 15.8821 12.5557 15.6193C12.6314 15.3564 12.7468 15.1115 12.902 14.8845H3.55775C3.11158 14.8845 2.74042 15.0368 2.44425 15.3413C2.14808 15.6458 2 16.0128 2 16.4423C2 16.8884 2.14808 17.2596 2.44425 17.5557C2.74042 17.8519 3.11158 18 3.55775 18Z" fill="#191919"/>
</svg>
