<svg width="18" height="18" viewBox="0 0 18 18" fill="none" xmlns="http://www.w3.org/2000/svg">
<path d="M4.7885 14.423C5.125 14.423 5.41108 14.3053 5.64675 14.0698C5.88225 13.8341 6 13.548 6 13.2115C6 12.875 5.88225 12.5889 5.64675 12.3533C5.41108 12.1178 5.125 12 4.7885 12C4.452 12 4.16592 12.1178 3.93025 12.3533C3.69475 12.5889 3.577 12.875 3.577 13.2115C3.577 13.548 3.69475 13.8341 3.93025 14.0698C4.16592 14.3053 4.452 14.423 4.7885 14.423ZM4.7885 6C5.125 6 5.41108 5.88225 5.64675 5.64675C5.88225 5.41108 6 5.125 6 4.7885C6 4.452 5.88225 4.16592 5.64675 3.93025C5.41108 3.69475 5.125 3.577 4.7885 3.577C4.452 3.577 4.16592 3.69475 3.93025 3.93025C3.69475 4.16592 3.577 4.452 3.577 4.7885C3.577 5.125 3.69475 5.41108 3.93025 5.64675C4.16592 5.88225 4.452 6 4.7885 6ZM9 10.2115C9.3365 10.2115 9.62258 10.0938 9.85825 9.85825C10.0938 9.62258 10.2115 9.3365 10.2115 9C10.2115 8.6635 10.0938 8.37742 9.85825 8.14175C9.62258 7.90625 9.3365 7.7885 9 7.7885C8.6635 7.7885 8.37742 7.90625 8.14175 8.14175C7.90625 8.37742 7.7885 8.6635 7.7885 9C7.7885 9.3365 7.90625 9.62258 8.14175 9.85825C8.37742 10.0938 8.6635 10.2115 9 10.2115ZM13.2115 14.423C13.548 14.423 13.8341 14.3053 14.0697 14.0698C14.3053 13.8341 14.423 13.548 14.423 13.2115C14.423 12.875 14.3053 12.5889 14.0697 12.3533C13.8341 12.1178 13.548 12 13.2115 12C12.875 12 12.5889 12.1178 12.3533 12.3533C12.1178 12.5889 12 12.875 12 13.2115C12 13.548 12.1178 13.8341 12.3533 14.0698C12.5889 14.3053 12.875 14.423 13.2115 14.423ZM13.2115 6C13.548 6 13.8341 5.88225 14.0697 5.64675C14.3053 5.41108 14.423 5.125 14.423 4.7885C14.423 4.452 14.3053 4.16592 14.0697 3.93025C13.8341 3.69475 13.548 3.577 13.2115 3.577C12.875 3.577 12.5889 3.69475 12.3533 3.93025C12.1178 4.16592 12 4.452 12 4.7885C12 5.125 12.1178 5.41108 12.3533 5.64675C12.5889 5.88225 12.875 6 13.2115 6ZM2.30775 17.5C1.80258 17.5 1.375 17.325 1.025 16.975C0.675 16.625 0.5 16.1974 0.5 15.6923V2.30775C0.5 1.80258 0.675 1.375 1.025 1.025C1.375 0.675 1.80258 0.5 2.30775 0.5H15.6923C16.1974 0.5 16.625 0.675 16.975 1.025C17.325 1.375 17.5 1.80258 17.5 2.30775V15.6923C17.5 16.1974 17.325 16.625 16.975 16.975C16.625 17.325 16.1974 17.5 15.6923 17.5H2.30775ZM2.30775 16H15.6923C15.7692 16 15.8398 15.9679 15.9038 15.9038C15.9679 15.8398 16 15.7692 16 15.6923V2.30775C16 2.23075 15.9679 2.16025 15.9038 2.09625C15.8398 2.03208 15.7692 2 15.6923 2H2.30775C2.23075 2 2.16025 2.03208 2.09625 2.09625C2.03208 2.16025 2 2.23075 2 2.30775V15.6923C2 15.7692 2.03208 15.8398 2.09625 15.9038C2.16025 15.9679 2.23075 16 2.30775 16Z" fill="#191919"/>
</svg>
