<svg width="20" height="20" viewBox="0 0 20 20" fill="none" xmlns="http://www.w3.org/2000/svg">
<path d="M9.98075 19.5C8.68458 19.5 7.46025 19.2503 6.30775 18.751C5.15508 18.2517 4.14867 17.5718 3.2885 16.7115C2.42817 15.8513 1.74833 14.8433 1.249 13.6875C0.749667 12.5317 0.5 11.3025 0.5 10C0.5 8.68083 0.756417 7.44333 1.26925 6.2875C1.78208 5.13167 2.47858 4.12625 3.35875 3.27125C4.23875 2.41608 5.26825 1.74042 6.44725 1.24425C7.62608 0.748084 8.88342 0.5 10.2192 0.5C11.4692 0.5 12.6538 0.713167 13.773 1.1395C14.8923 1.56583 15.8753 2.15592 16.722 2.90975C17.5688 3.66358 18.2435 4.55942 18.746 5.59725C19.2487 6.63492 19.5 7.76017 19.5 8.973C19.5 10.7038 18.9856 12.0577 17.9568 13.0345C16.9279 14.0115 15.609 14.5 14 14.5H12.1885C11.9038 14.5 11.6762 14.5929 11.5057 14.7788C11.3352 14.9648 11.25 15.1847 11.25 15.4385C11.25 15.7475 11.375 16.0687 11.625 16.402C11.875 16.7353 12 17.118 12 17.55C12 18.2102 11.8173 18.7003 11.452 19.0203C11.0865 19.3401 10.5961 19.5 9.98075 19.5ZM4.5 10.75C4.85633 10.75 5.15375 10.6307 5.39225 10.3923C5.63075 10.1538 5.75 9.85633 5.75 9.5C5.75 9.14367 5.63075 8.84625 5.39225 8.60775C5.15375 8.36925 4.85633 8.25 4.5 8.25C4.14367 8.25 3.84625 8.36925 3.60775 8.60775C3.36925 8.84625 3.25 9.14367 3.25 9.5C3.25 9.85633 3.36925 10.1538 3.60775 10.3923C3.84625 10.6307 4.14367 10.75 4.5 10.75ZM7.5 6.75C7.85633 6.75 8.15375 6.63075 8.39225 6.39225C8.63075 6.15375 8.75 5.85633 8.75 5.5C8.75 5.14367 8.63075 4.84625 8.39225 4.60775C8.15375 4.36925 7.85633 4.25 7.5 4.25C7.14367 4.25 6.84625 4.36925 6.60775 4.60775C6.36925 4.84625 6.25 5.14367 6.25 5.5C6.25 5.85633 6.36925 6.15375 6.60775 6.39225C6.84625 6.63075 7.14367 6.75 7.5 6.75ZM12.5 6.75C12.8563 6.75 13.1538 6.63075 13.3923 6.39225C13.6307 6.15375 13.75 5.85633 13.75 5.5C13.75 5.14367 13.6307 4.84625 13.3923 4.60775C13.1538 4.36925 12.8563 4.25 12.5 4.25C12.1437 4.25 11.8462 4.36925 11.6077 4.60775C11.3693 4.84625 11.25 5.14367 11.25 5.5C11.25 5.85633 11.3693 6.15375 11.6077 6.39225C11.8462 6.63075 12.1437 6.75 12.5 6.75ZM15.5 10.75C15.8563 10.75 16.1538 10.6307 16.3923 10.3923C16.6308 10.1538 16.75 9.85633 16.75 9.5C16.75 9.14367 16.6308 8.84625 16.3923 8.60775C16.1538 8.36925 15.8563 8.25 15.5 8.25C15.1437 8.25 14.8462 8.36925 14.6077 8.60775C14.3693 8.84625 14.25 9.14367 14.25 9.5C14.25 9.85633 14.3693 10.1538 14.6077 10.3923C14.8462 10.6307 15.1437 10.75 15.5 10.75ZM9.98075 18C10.1436 18 10.2708 17.9599 10.3625 17.8798C10.4542 17.7996 10.5 17.6897 10.5 17.55C10.5 17.3167 10.375 17.0545 10.125 16.7635C9.875 16.4725 9.75 16.0167 9.75 15.3962C9.75 14.6834 9.99167 14.1058 10.475 13.6635C10.9583 13.2212 11.55 13 12.25 13H14C15.177 13 16.1379 12.6552 16.8827 11.9655C17.6276 11.2757 18 10.2782 18 8.973C18 6.95 17.2243 5.28208 15.673 3.96925C14.1218 2.65642 12.3039 2 10.2192 2C7.93342 2 5.99208 2.775 4.39525 4.325C2.79842 5.875 2 7.76667 2 10C2 12.2167 2.77917 14.1042 4.3375 15.6625C5.89583 17.2208 7.77692 18 9.98075 18Z" fill="#191919"/>
</svg>
