<svg width="21" height="21" viewBox="0 0 21 21" fill="none" xmlns="http://www.w3.org/2000/svg">
<path d="M19.2635 20.3078L16.3328 17.402C16.0456 17.598 15.7343 17.7467 15.399 17.848C15.0638 17.9493 14.7129 18 14.3462 18C13.3387 18 12.4762 17.6417 11.7587 16.925C11.0414 16.2083 10.6827 15.3468 10.6827 14.3403C10.6827 13.3339 11.0411 12.4727 11.7578 11.7568C12.4744 11.0408 13.3359 10.6827 14.3422 10.6827C15.3488 10.6827 16.21 11.0405 16.926 11.756C17.642 12.4715 18 13.3317 18 14.3365C18 14.713 17.9468 15.069 17.8403 15.4045C17.7339 15.74 17.5827 16.0513 17.3865 16.3385L20.3078 19.2538L19.2635 20.3078ZM3.65375 18.0095C2.64908 18.0095 1.78892 17.6515 1.07325 16.9355C0.35775 16.2195 0 15.3532 0 14.3365C0 13.3317 0.35775 12.4715 1.07325 11.756C1.78892 11.0405 2.64908 10.6827 3.65375 10.6827C4.67042 10.6827 5.53683 11.0405 6.253 11.756C6.969 12.4715 7.327 13.3317 7.327 14.3365C7.327 15.3532 6.969 16.2195 6.253 16.9355C5.53683 17.6515 4.67042 18.0095 3.65375 18.0095ZM3.65375 16.5095C4.26158 16.5095 4.77575 16.2993 5.19625 15.8788C5.61675 15.4583 5.827 14.9442 5.827 14.3365C5.827 13.7442 5.61675 13.2371 5.19625 12.8152C4.77575 12.3936 4.26158 12.1827 3.65375 12.1827C3.06158 12.1827 2.55458 12.3936 2.13275 12.8152C1.71092 13.2371 1.5 13.7442 1.5 14.3365C1.5 14.9442 1.71092 15.4583 2.13275 15.8788C2.55458 16.2993 3.06158 16.5095 3.65375 16.5095ZM14.3462 16.5095C14.9384 16.5095 15.4454 16.2993 15.8673 15.8788C16.2891 15.4583 16.5 14.9442 16.5 14.3365C16.5 13.7442 16.2891 13.2371 15.8673 12.8152C15.4454 12.3936 14.9384 12.1827 14.3462 12.1827C13.7384 12.1827 13.2243 12.3936 12.8038 12.8152C12.3833 13.2371 12.173 13.7442 12.173 14.3365C12.173 14.9442 12.3833 15.4583 12.8038 15.8788C13.2243 16.2993 13.7384 16.5095 14.3462 16.5095ZM3.65375 7.3365C2.64908 7.3365 1.78892 6.9785 1.07325 6.2625C0.35775 5.5465 0 4.68017 0 3.6635C0 2.65867 0.35775 1.7985 1.07325 1.083C1.78892 0.3675 2.64908 0.00975037 3.65375 0.00975037C4.67042 0.00975037 5.53683 0.3675 6.253 1.083C6.969 1.7985 7.327 2.65867 7.327 3.6635C7.327 4.68017 6.969 5.5465 6.253 6.2625C5.53683 6.9785 4.67042 7.3365 3.65375 7.3365ZM14.3462 7.3365C13.3296 7.3365 12.4632 6.9785 11.747 6.2625C11.031 5.5465 10.673 4.68017 10.673 3.6635C10.673 2.65867 11.031 1.7985 11.747 1.083C12.4632 0.3675 13.3296 0.00975037 14.3462 0.00975037C15.3509 0.00975037 16.2111 0.3675 16.9268 1.083C17.6423 1.7985 18 2.65867 18 3.6635C18 4.68017 17.6423 5.5465 16.9268 6.2625C16.2111 6.9785 15.3509 7.3365 14.3462 7.3365ZM3.65375 5.8365C4.26158 5.8365 4.77575 5.62625 5.19625 5.20575C5.61675 4.78525 5.827 4.27117 5.827 3.6635C5.827 3.07117 5.61675 2.56408 5.19625 2.14225C4.77575 1.72042 4.26158 1.5095 3.65375 1.5095C3.06158 1.5095 2.55458 1.72042 2.13275 2.14225C1.71092 2.56408 1.5 3.07117 1.5 3.6635C1.5 4.27117 1.71092 4.78525 2.13275 5.20575C2.55458 5.62625 3.06158 5.8365 3.65375 5.8365ZM14.3462 5.8365C14.9384 5.8365 15.4454 5.62625 15.8673 5.20575C16.2891 4.78525 16.5 4.27117 16.5 3.6635C16.5 3.07117 16.2891 2.56408 15.8673 2.14225C15.4454 1.72042 14.9384 1.5095 14.3462 1.5095C13.7384 1.5095 13.2243 1.72042 12.8038 2.14225C12.3833 2.56408 12.173 3.07117 12.173 3.6635C12.173 4.27117 12.3833 4.78525 12.8038 5.20575C13.2243 5.62625 13.7384 5.8365 14.3462 5.8365Z" fill="#191919"/>
</svg>
