<svg width="14" height="17" viewBox="0 0 14 17" fill="none" xmlns="http://www.w3.org/2000/svg">
<path fill-rule="evenodd" clip-rule="evenodd" d="M7.65506 16.7332C9.39495 15.0534 14 10.3061 14 7.11768C14 3.18669 10.866 0 7 0C3.13401 0 0 3.18669 0 7.11768C0 10.3061 4.60504 15.0534 6.34494 16.7332C6.71306 17.0886 7.28694 17.0886 7.65506 16.7332ZM6.95708 9.19352C8.22472 9.19352 9.25234 8.1659 9.25234 6.89826C9.25234 5.63062 8.22472 4.603 6.95708 4.603C5.68945 4.603 4.66182 5.63062 4.66182 6.89826C4.66182 8.1659 5.68945 9.19352 6.95708 9.19352Z" fill="#191919"/>
</svg>
