<svg width="21" height="17" viewBox="0 0 21 17" fill="none" xmlns="http://www.w3.org/2000/svg">
<mask id="path-1-outside-1_11706_2582" maskUnits="userSpaceOnUse" x="-0.972473" y="8.5" width="16" height="8" fill="black">
<rect fill="white" x="-0.972473" y="8.5" width="16" height="8"/>
<path d="M7.02753 9.5C10.0374 9.5 12.5357 11.6645 13.0156 14.5043C13.1076 15.0489 12.6511 15.5 12.0988 15.5H1.95624C1.40395 15.5 0.947421 15.0489 1.03945 14.5043C1.51939 11.6645 4.01765 9.50002 7.02753 9.5Z"/>
</mask>
<path d="M7.02753 9.5C10.0374 9.5 12.5357 11.6645 13.0156 14.5043C13.1076 15.0489 12.6511 15.5 12.0988 15.5H1.95624C1.40395 15.5 0.947421 15.0489 1.03945 14.5043C1.51939 11.6645 4.01765 9.50002 7.02753 9.5Z" fill="#9EA4AA"/>
<path d="M7.02753 9.5V8.5H7.02752L7.02753 9.5ZM7.02753 9.5V10.5C9.54989 10.5 11.631 12.3127 12.0296 14.6709L13.0156 14.5043L14.0016 14.3377C13.4403 11.0162 10.525 8.5 7.02753 8.5V9.5ZM12.0988 15.5V14.5H1.95624V15.5V16.5H12.0988V15.5ZM1.03945 14.5043L2.02547 14.6709C2.42402 12.3127 4.50519 10.5 7.02753 10.5L7.02753 9.5L7.02752 8.5C3.53012 8.50003 0.614765 11.0162 0.053436 14.3377L1.03945 14.5043ZM1.95624 15.5V14.5C1.95098 14.5 1.96206 14.4974 1.98152 14.5179C1.99253 14.5295 2.00746 14.5503 2.01759 14.5816C2.02835 14.6148 2.02946 14.6473 2.02547 14.6709L1.03945 14.5043L0.053436 14.3377C-0.161071 15.6069 0.906995 16.5 1.95624 16.5V15.5ZM13.0156 14.5043L12.0296 14.6709C12.0256 14.6473 12.0267 14.6148 12.0375 14.5816C12.0476 14.5503 12.0625 14.5295 12.0735 14.5179C12.093 14.4974 12.1041 14.5 12.0988 14.5V15.5V16.5C13.1481 16.5 14.2161 15.6069 14.0016 14.3377L13.0156 14.5043Z" fill="white" mask="url(#path-1-outside-1_11706_2582)"/>
<circle cx="7.02832" cy="4.5" r="3.5" fill="#9EA4AA" stroke="white"/>
<mask id="path-4-outside-2_11706_2582" maskUnits="userSpaceOnUse" x="5.0293" y="8.5" width="16" height="8" fill="black">
<rect fill="white" x="5.0293" y="8.5" width="16" height="8"/>
<path d="M13.0293 9.5C16.0392 9.5 18.5374 11.6645 19.0174 14.5043C19.1094 15.0489 18.6529 15.5 18.1006 15.5H7.95801C7.40572 15.5 6.94919 15.0489 7.04122 14.5043C7.52116 11.6645 10.0194 9.50002 13.0293 9.5Z"/>
</mask>
<path d="M13.0293 9.5C16.0392 9.5 18.5374 11.6645 19.0174 14.5043C19.1094 15.0489 18.6529 15.5 18.1006 15.5H7.95801C7.40572 15.5 6.94919 15.0489 7.04122 14.5043C7.52116 11.6645 10.0194 9.50002 13.0293 9.5Z" fill="#9EA4AA"/>
<path d="M13.0293 9.5V8.5H13.0293L13.0293 9.5ZM13.0293 9.5V10.5C15.5517 10.5 17.6328 12.3127 18.0314 14.6709L19.0174 14.5043L20.0034 14.3377C19.4421 11.0162 16.5267 8.5 13.0293 8.5V9.5ZM18.1006 15.5V14.5H7.95801V15.5V16.5H18.1006V15.5ZM7.04122 14.5043L8.02724 14.6709C8.42579 12.3127 10.507 10.5 13.0293 10.5L13.0293 9.5L13.0293 8.5C9.53189 8.50003 6.61654 11.0162 6.05521 14.3377L7.04122 14.5043ZM7.95801 15.5V14.5C7.95275 14.5 7.96383 14.4974 7.98329 14.5179C7.9943 14.5295 8.00923 14.5503 8.01936 14.5816C8.03012 14.6148 8.03123 14.6473 8.02724 14.6709L7.04122 14.5043L6.05521 14.3377C5.8407 15.6069 6.90877 16.5 7.95801 16.5V15.5ZM19.0174 14.5043L18.0314 14.6709C18.0274 14.6473 18.0285 14.6148 18.0392 14.5816C18.0494 14.5503 18.0643 14.5295 18.0753 14.5179C18.0948 14.4974 18.1058 14.5 18.1006 14.5V15.5V16.5C19.1498 16.5 20.2179 15.6069 20.0034 14.3377L19.0174 14.5043Z" fill="white" mask="url(#path-4-outside-2_11706_2582)"/>
<circle cx="13.0283" cy="4.5" r="3.5" fill="#9EA4AA" stroke="white"/>
</svg>
