<svg width="14" height="18" viewBox="0 0 14 18" fill="none" xmlns="http://www.w3.org/2000/svg">
<path d="M7 0.5C10.866 0.5 14 3.68718 14 7.61816C13.9995 10.8065 9.3951 15.5536 7.65527 17.2334C7.28716 17.5888 6.71284 17.5888 6.34473 17.2334C4.6049 15.5536 0.000465878 10.8065 0 7.61816C0 3.68718 3.13401 0.5 7 0.5ZM6.95703 5.10254C5.68942 5.10257 4.66211 6.13082 4.66211 7.39844C4.66221 8.66597 5.68948 9.69333 6.95703 9.69336C8.22461 9.69336 9.25186 8.66599 9.25195 7.39844C9.25195 6.1308 8.22467 5.10254 6.95703 5.10254Z" fill="#9EA4AA"/>
</svg>
