<svg width="17" height="17" viewBox="0 0 17 17" fill="none" xmlns="http://www.w3.org/2000/svg">
<path d="M15.7154 9.97017L9.98829 15.6902C9.82809 15.8502 9.64787 15.9702 9.44761 16.0502C9.24736 16.1302 9.04711 16.1702 8.84686 16.1702C8.64661 16.1702 8.44636 16.1302 8.24611 16.0502C8.04586 15.9702 7.86564 15.8502 7.70544 15.6902L0.636601 8.63017C0.489751 8.4835 0.376276 8.3135 0.296176 8.12017C0.216075 7.92683 0.176025 7.7235 0.176025 7.51017V1.77017C0.176025 1.33017 0.332888 0.953499 0.646614 0.640166C0.960339 0.326833 1.33748 0.170166 1.77803 0.170166H7.52521C7.73881 0.170166 7.94574 0.213499 8.14599 0.300166C8.34624 0.386833 8.51979 0.503499 8.66664 0.650166L15.7154 7.71017C15.8756 7.87017 15.9925 8.05017 16.0659 8.25017C16.1393 8.45017 16.176 8.65017 16.176 8.85017C16.176 9.05017 16.1393 9.24683 16.0659 9.44017C15.9925 9.6335 15.8756 9.81017 15.7154 9.97017ZM3.78053 4.97017C4.11428 4.97017 4.39797 4.8535 4.63159 4.62017C4.86522 4.38683 4.98203 4.1035 4.98203 3.77017C4.98203 3.43683 4.86522 3.1535 4.63159 2.92017C4.39797 2.68683 4.11428 2.57017 3.78053 2.57017C3.44678 2.57017 3.16309 2.68683 2.92947 2.92017C2.69584 3.1535 2.57903 3.43683 2.57903 3.77017C2.57903 4.1035 2.69584 4.38683 2.92947 4.62017C3.16309 4.8535 3.44678 4.97017 3.78053 4.97017Z" fill="#1C1B1F"/>
</svg>
