<svg width="14" height="17" viewBox="0 0 14 17" fill="none" xmlns="http://www.w3.org/2000/svg">
<path d="M7 0C10.866 1.30982e-07 14 3.1863 14 7.11621C13.9995 10.3036 9.39522 15.049 7.65527 16.7285C7.28718 17.0838 6.71282 17.0838 6.34473 16.7285C4.60478 15.049 0.000458646 10.3036 0 7.11621C0 3.1863 3.13401 0 7 0ZM6.95703 4.71973C5.67665 4.71978 4.63867 5.75867 4.63867 7.03906C4.63891 8.31925 5.6768 9.35737 6.95703 9.35742C8.2373 9.35742 9.27515 8.31928 9.27539 7.03906C9.27539 5.75864 8.23745 4.71973 6.95703 4.71973Z" fill="#191919"/>
</svg>
