<svg width="18" height="18" viewBox="0 0 18 18" fill="none" xmlns="http://www.w3.org/2000/svg">
<path d="M8.54597 0.984332C8.72468 0.596896 9.27532 0.596897 9.45403 0.984332L11.7041 5.86257C11.777 6.02048 11.9266 6.1292 12.0993 6.14967L17.4341 6.7822C17.8578 6.83243 18.028 7.35613 17.7147 7.64581L13.7706 11.2933C13.6429 11.4113 13.5857 11.5872 13.6196 11.7578L14.6666 17.027C14.7497 17.4454 14.3043 17.7691 13.932 17.5607L9.24422 14.9367C9.09248 14.8518 8.90752 14.8518 8.75578 14.9367L4.06804 17.5607C3.69573 17.7691 3.25025 17.4454 3.33341 17.027L4.38038 11.7578C4.41427 11.5872 4.35711 11.4113 4.22945 11.2933L0.285288 7.64581C-0.0279622 7.35613 0.142197 6.83243 0.565893 6.7822L5.9007 6.14967C6.07338 6.1292 6.22302 6.02048 6.29586 5.86257L8.54597 0.984332Z" fill="#191919"/>
</svg>
