<svg width="72" height="73" viewBox="0 0 72 73" fill="none" xmlns="http://www.w3.org/2000/svg">
<g id="add_photo_alternate_80dp_1F1F1F_FILL0_wght400_GRAD0_opsz48 1">
<path id="Vector" d="M13.5 63.5C12.3 63.5 11.25 63.05 10.35 62.15C9.45 61.25 9 60.2 9 59V14C9 12.8 9.45 11.75 10.35 10.85C11.25 9.95 12.3 9.5 13.5 9.5H40.875V14H13.5V59H58.5V31.625H63V59C63 60.2 62.55 61.25 61.65 62.15C60.75 63.05 59.7 63.5 58.5 63.5H13.5ZM18 51.35H54L43.2 36.95L33.675 49.475L26.625 40.175L18 51.35ZM51.975 27.125V20.6H45.375V16.1H51.975V9.5H56.475V16.1H63V20.6H56.475V27.125H51.975Z" fill="#E8EBED"/>
</g>
</svg>
