<svg width="48" height="48" viewBox="0 0 48 48" fill="none" xmlns="http://www.w3.org/2000/svg">
<circle cx="24" cy="24" r="23.6" fill="white" stroke="#E8EBED" stroke-width="0.8"/>
<g clip-path="url(#clip0_791_1698)">
<path fill-rule="evenodd" clip-rule="evenodd" d="M35 24.2488C35 23.4645 34.9317 22.7184 34.795 22.001H24.2245V26.2575H30.2662C30.0027 27.6349 29.2121 28.8018 28.0311 29.5766V32.341H31.6619C33.7799 30.4279 35.0098 27.6062 35.0098 24.2584L35 24.2488Z" fill="#4285F4"/>
<path fill-rule="evenodd" clip-rule="evenodd" d="M24.2245 35.0002C27.2502 35.0002 29.7977 34.015 31.6522 32.3315L28.0213 29.5672C27.016 30.2272 25.7276 30.6194 24.2245 30.6194C21.2964 30.6194 18.827 28.6872 17.9486 26.0854H14.1908V28.9359C16.0355 32.5324 19.8323 35.0002 24.2245 35.0002Z" fill="#34A853"/>
<path fill-rule="evenodd" clip-rule="evenodd" d="M17.9485 26.0949C17.724 25.4349 17.5972 24.7271 17.5972 24.0097C17.5972 23.2923 17.724 22.5845 17.9485 21.9149V19.0645H14.1908C13.4295 20.5471 13 22.2305 13 24.0001C13 25.7697 13.4295 27.4531 14.1908 28.9358L17.9388 26.0853L17.9485 26.0949Z" fill="#FBBC05"/>
<path fill-rule="evenodd" clip-rule="evenodd" d="M24.2245 17.3711C25.874 17.3711 27.3478 17.9259 28.5191 19.0163L31.74 15.8598C29.7977 14.0807 27.26 12.9902 24.2343 12.9902C19.8323 12.9998 16.0453 15.4676 14.1908 19.0641L17.9388 21.9146C18.8172 19.3128 21.2964 17.3807 24.2148 17.3807L24.2245 17.3711Z" fill="#EA4335"/>
</g>
<defs>
<clipPath id="clip0_791_1698">
<rect width="22" height="22" fill="white" transform="translate(13 13)"/>
</clipPath>
</defs>
</svg>
