<svg xmlns="http://www.w3.org/2000/svg" width="48" height="48" viewBox="0 0 48 48" fill="none">
    <circle cx="24" cy="24" r="24" fill="#FFEB22"/>
    <path d="M23.9805 15C17.9041 15 13 18.8691 13 23.5467C13 26.5881 15.032 29.2637 18.0995 30.7844L17.0639 34.5958C17.0639 34.5958 17.0444 34.7113 17.0639 34.769C17.0639 34.8268 17.103 34.8845 17.1421 34.923C17.2007 34.9808 17.2789 35 17.3766 35C17.4547 35 17.5133 34.9615 17.5719 34.923L22.0266 31.9586C22.6909 32.0549 23.3552 32.0934 24.0195 32.0934C30.0959 32.0934 35 28.2243 35 23.5274C35 18.8306 30.0568 15 23.9805 15Z" fill="#392020"/>
</svg>