<svg width="8" height="8" viewBox="0 0 8 8" fill="none" xmlns="http://www.w3.org/2000/svg">
<path d="M4.70595 3.99814L7.85595 0.85314C7.9501 0.758988 8.00299 0.63129 8.00299 0.49814C8.00299 0.364989 7.9501 0.237291 7.85595 0.14314C7.76179 0.0489877 7.6341 -0.00390625 7.50095 -0.00390625C7.36779 -0.00390625 7.2401 0.0489877 7.14595 0.14314L4.00095 3.29314L0.855946 0.14314C0.761794 0.0489877 0.634097 -0.00390613 0.500946 -0.00390613C0.367795 -0.00390613 0.240098 0.0489877 0.145946 0.14314C0.0517942 0.237291 -0.0010997 0.364989 -0.00109971 0.49814C-0.00109971 0.63129 0.0517942 0.758988 0.145946 0.85314L3.29595 3.99814L0.145946 7.14314C0.0990818 7.18962 0.0618848 7.24492 0.0365005 7.30585C0.0111161 7.36678 -0.00195312 7.43213 -0.00195312 7.49814C-0.00195312 7.56415 0.0111161 7.6295 0.0365005 7.69043C0.0618848 7.75136 0.0990818 7.80666 0.145946 7.85314C0.192428 7.9 0.247728 7.9372 0.308658 7.96259C0.369587 7.98797 0.43494 8.00104 0.500946 8.00104C0.566952 8.00104 0.632305 7.98797 0.693234 7.96259C0.754164 7.9372 0.809465 7.9 0.855946 7.85314L4.00095 4.70314L7.14595 7.85314C7.19243 7.9 7.24773 7.9372 7.30866 7.96259C7.36959 7.98797 7.43494 8.00104 7.50095 8.00104C7.56695 8.00104 7.6323 7.98797 7.69323 7.96259C7.75416 7.9372 7.80946 7.9 7.85595 7.85314C7.90281 7.80666 7.94001 7.75136 7.96539 7.69043C7.99078 7.6295 8.00385 7.56415 8.00385 7.49814C8.00385 7.43213 7.99078 7.36678 7.96539 7.30585C7.94001 7.24492 7.90281 7.18962 7.85595 7.14314L4.70595 3.99814Z" fill="#9EA4AA"/>
</svg>
