<svg width="24" height="24" viewBox="0 0 24 24" fill="none" xmlns="http://www.w3.org/2000/svg">
<mask id="path-1-outside-1_6405_21052" maskUnits="userSpaceOnUse" x="1.02734" y="11" width="16" height="8" fill="black">
<rect fill="white" x="1.02734" y="11" width="16" height="8"/>
<path d="M9.02728 12C12.0372 12 14.5354 14.1645 15.0154 17.0043C15.1074 17.5489 14.6509 18 14.0986 18H3.95599C3.40371 18 2.94717 17.5489 3.03921 17.0043C3.51914 14.1645 6.01741 12 9.02728 12Z"/>
</mask>
<path d="M9.02728 12C12.0372 12 14.5354 14.1645 15.0154 17.0043C15.1074 17.5489 14.6509 18 14.0986 18H3.95599C3.40371 18 2.94717 17.5489 3.03921 17.0043C3.51914 14.1645 6.01741 12 9.02728 12Z" fill="#9EA4AA"/>
<path d="M9.02728 12V11H9.02727L9.02728 12ZM9.02728 12V13C11.5496 13 13.6308 14.8127 14.0293 17.1709L15.0154 17.0043L16.0014 16.8377C15.4401 13.5162 12.5247 11 9.02728 11V12ZM14.0986 18V17H3.95599V18V19H14.0986V18ZM3.03921 17.0043L4.02522 17.1709C4.42377 14.8127 6.50494 13 9.02729 13L9.02728 12L9.02727 11C5.52987 11 2.61452 13.5162 2.05319 16.8377L3.03921 17.0043ZM3.95599 18V17C3.95073 17 3.96182 16.9974 3.98128 17.0179C3.99228 17.0295 4.00722 17.0503 4.01734 17.0816C4.0281 17.1148 4.02922 17.1473 4.02522 17.1709L3.03921 17.0043L2.05319 16.8377C1.83868 18.1069 2.90675 19 3.95599 19V18ZM15.0154 17.0043L14.0293 17.1709C14.0253 17.1473 14.0265 17.1148 14.0372 17.0816C14.0473 17.0503 14.0623 17.0295 14.0733 17.0179C14.0927 16.9974 14.1038 17 14.0986 17V18V19C15.1478 19 16.2159 18.1069 16.0014 16.8377L15.0154 17.0043Z" fill="white" mask="url(#path-1-outside-1_6405_21052)"/>
<circle cx="9.02734" cy="7" r="3.5" fill="#9EA4AA" stroke="white"/>
<mask id="path-4-outside-2_6405_21052" maskUnits="userSpaceOnUse" x="7.0293" y="11" width="16" height="8" fill="black">
<rect fill="white" x="7.0293" y="11" width="16" height="8"/>
<path d="M15.0292 12C18.0391 12 20.5374 14.1645 21.0173 17.0043C21.1093 17.5489 20.6528 18 20.1005 18H9.95794C9.40566 18 8.94913 17.5489 9.04116 17.0043C9.5211 14.1645 12.0194 12 15.0292 12Z"/>
</mask>
<path d="M15.0292 12C18.0391 12 20.5374 14.1645 21.0173 17.0043C21.1093 17.5489 20.6528 18 20.1005 18H9.95794C9.40566 18 8.94913 17.5489 9.04116 17.0043C9.5211 14.1645 12.0194 12 15.0292 12Z" fill="#9EA4AA"/>
<path d="M15.0292 12V11H15.0292L15.0292 12ZM15.0292 12V13C17.5516 13 19.6327 14.8127 20.0313 17.1709L21.0173 17.0043L22.0033 16.8377C21.442 13.5162 18.5267 11 15.0292 11V12ZM20.1005 18V17H9.95794V18V19H20.1005V18ZM9.04116 17.0043L10.0272 17.1709C10.4257 14.8127 12.5069 13 15.0292 13L15.0292 12L15.0292 11C11.5318 11 8.61647 13.5162 8.05514 16.8377L9.04116 17.0043ZM9.95794 18V17C9.95269 17 9.96377 16.9974 9.98323 17.0179C9.99424 17.0295 10.0092 17.0503 10.0193 17.0816C10.0301 17.1148 10.0312 17.1473 10.0272 17.1709L9.04116 17.0043L8.05514 16.8377C7.84063 18.1069 8.9087 19 9.95794 19V18ZM21.0173 17.0043L20.0313 17.1709C20.0273 17.1473 20.0284 17.1148 20.0392 17.0816C20.0493 17.0503 20.0642 17.0295 20.0752 17.0179C20.0947 16.9974 20.1058 17 20.1005 17V18V19C21.1498 19 22.2178 18.1069 22.0033 16.8377L21.0173 17.0043Z" fill="white" mask="url(#path-4-outside-2_6405_21052)"/>
<circle cx="15.0273" cy="7" r="3.5" fill="#9EA4AA" stroke="white"/>
</svg>
