<svg width="16" height="12" viewBox="0 0 16 12" fill="none" xmlns="http://www.w3.org/2000/svg">
<g clip-path="url(#clip0_8531_21073)">
<path d="M7.89265 0.00719056C8.12785 -0.0234217 8.33609 0.0436337 8.50089 0.209814L11.0867 3.98532C11.3279 4.3104 11.7773 4.38037 12.1174 4.1515L15.2529 1.88328C15.6544 1.73022 16.032 2.00282 15.999 2.4139L15.0013 8.57862L0.983284 8.56113L0.00201049 2.4139C-0.0309483 2.00282 0.34658 1.73022 0.748078 1.88328L3.88366 4.1515C4.13684 4.32497 4.47392 4.33081 4.7316 4.16462C5.72935 2.90807 6.56531 1.51885 7.50014 0.209814C7.60501 0.104858 7.74134 0.0275987 7.89265 0.00719056Z" fill="#FFC62B"/>
<path d="M15.0332 9.72656V11.3315C15.0332 11.6551 14.6242 12.0225 14.2841 11.9977H1.6519C1.33729 11.9846 0.96875 11.6347 0.96875 11.3315V9.72656H15.0332Z" fill="#FFC62B"/>
</g>
<defs>
<clipPath id="clip0_8531_21073">
<rect width="16" height="12" fill="white"/>
</clipPath>
</defs>
</svg>
