<svg width="16" height="11" viewBox="0 0 16 11" fill="none" xmlns="http://www.w3.org/2000/svg">
<g clip-path="url(#clip0_9131_23498)">
<path d="M7.9029 0.00659135C8.1185 -0.0214699 8.30939 0.0399976 8.46045 0.19233L10.8307 3.65321C11.0518 3.9512 11.4638 4.01534 11.7756 3.80555L14.6498 1.72634C15.0179 1.58604 15.3639 1.83592 15.3337 2.21274L14.4191 7.86374L1.56931 7.8477L0.669812 2.21274C0.639599 1.83592 0.985667 1.58604 1.35371 1.72634L4.22799 3.80555C4.46007 3.96456 4.76906 3.96991 5.00527 3.81757C5.91987 2.66573 6.68617 1.39228 7.5431 0.19233C7.63923 0.09612 7.76419 0.0252988 7.9029 0.00659135Z" fill="#FFC62B"/>
<path d="M14.4471 8.91602V10.3872C14.4471 10.6839 14.0722 11.0206 13.7604 10.9979H2.1809C1.89252 10.9859 1.55469 10.6652 1.55469 10.3872V8.91602H14.4471Z" fill="#FFC62B"/>
</g>
<defs>
<clipPath id="clip0_9131_23498">
<rect width="14.6667" height="11" fill="white" transform="translate(0.667969)"/>
</clipPath>
</defs>
</svg>
