<svg width="16" height="14" viewBox="0 0 16 14" fill="none" xmlns="http://www.w3.org/2000/svg">
<g clip-path="url(#clip0_8531_21061)">
<path d="M7.90634 3.23692C8.11215 3.20945 8.29437 3.26963 8.43857 3.41877L10.7012 6.8072C10.9123 7.09895 11.3055 7.16174 11.6031 6.95635L14.3468 4.92067C14.6982 4.7833 15.0285 5.02795 14.9997 5.39688L14.1266 10.9296L1.86041 10.9139L1.00176 5.39688C0.972919 5.02795 1.30327 4.7833 1.65459 4.92067L4.39833 6.95635C4.61988 7.11203 4.91483 7.11726 5.14031 6.96812C6.01338 5.84039 6.74487 4.5936 7.56288 3.41877C7.65464 3.32458 7.77393 3.25524 7.90634 3.23692Z" fill="#764BF6"/>
<path d="M14.1545 11.9609V13.4013C14.1545 13.6918 13.7966 14.0215 13.499 13.9992H2.44543C2.17014 13.9875 1.84766 13.6735 1.84766 13.4013V11.9609H14.1545Z" fill="#764BF6"/>
</g>
<ellipse cx="8.00004" cy="1.07697" rx="1.00004" ry="1.07697" fill="#764BF6"/>
<circle cx="14.9636" cy="2.78779" r="1.03779" fill="#764BF6"/>
<path d="M2.00008 2.66096C2.00008 3.25575 1.55235 3.73793 1.00004 3.73793C0.447733 3.73793 0 3.25575 0 2.66096C0 2.06616 0.447733 1.58398 1.00004 1.58398C1.55235 1.58398 2.00008 2.06616 2.00008 2.66096Z" fill="#764BF6"/>
<defs>
<clipPath id="clip0_8531_21061">
<rect width="14.0005" height="10.7697" fill="white" transform="translate(1 3.23047)"/>
</clipPath>
</defs>
</svg>
