<svg width="14" height="12" viewBox="0 0 14 12" fill="none" xmlns="http://www.w3.org/2000/svg">
<g clip-path="url(#clip0_9131_15015)">
<path d="M6.91746 2.77701C7.09753 2.75347 7.25696 2.80504 7.38312 2.93285L9.36273 5.83656C9.54739 6.08657 9.89147 6.14038 10.1518 5.96436L12.5524 4.2199C12.8597 4.10218 13.1488 4.31183 13.1235 4.62799L12.3597 9.36921L1.62778 9.35576L0.876539 4.62799C0.851307 4.31183 1.14033 4.10218 1.44771 4.2199L3.84826 5.96436C4.04209 6.09778 4.30015 6.10226 4.49742 5.97445C5.26128 5.00805 5.90127 3.93962 6.61696 2.93285C6.69725 2.85213 6.80162 2.79271 6.91746 2.77701Z" fill="#764BF6"/>
<path d="M12.3846 10.252V11.4863C12.3846 11.7352 12.0715 12.0177 11.8112 11.9987H2.14019C1.89933 11.9886 1.61719 11.7195 1.61719 11.4863V10.252H12.3846Z" fill="#764BF6"/>
</g>
<ellipse cx="7.00386" cy="0.922908" rx="0.87495" ry="0.922908" fill="#764BF6"/>
<circle cx="13.1017" cy="2.38884" r="0.898609" fill="#764BF6"/>
<path d="M1.7499 2.27642C1.7499 2.78613 1.35817 3.19933 0.87495 3.19933C0.391728 3.19933 0 2.78613 0 2.27642C0 1.76672 0.391728 1.35352 0.87495 1.35352C1.35817 1.35352 1.7499 1.76672 1.7499 2.27642Z" fill="#764BF6"/>
<defs>
<clipPath id="clip0_9131_15015">
<rect width="12.2493" height="9.22908" fill="white" transform="translate(0.875 2.77148)"/>
</clipPath>
</defs>
</svg>
