<svg width="24" height="24" viewBox="0 0 24 24" fill="none" xmlns="http://www.w3.org/2000/svg">
<path d="M5.7 20V18.2222H18.3V20H5.7ZM5.7 16.8889L4.5525 9.75556C4.5225 9.75556 4.48875 9.75926 4.45125 9.76667C4.41375 9.77407 4.38 9.77778 4.35 9.77778C3.975 9.77778 3.65625 9.64815 3.39375 9.38889C3.13125 9.12963 3 8.81482 3 8.44444C3 8.07407 3.13125 7.75926 3.39375 7.5C3.65625 7.24074 3.975 7.11111 4.35 7.11111C4.725 7.11111 5.04375 7.24074 5.30625 7.5C5.56875 7.75926 5.7 8.07407 5.7 8.44444C5.7 8.54815 5.68875 8.64444 5.66625 8.73333C5.64375 8.82222 5.6175 8.9037 5.5875 8.97778L8.4 10.2222L11.2125 6.42222C11.0475 6.3037 10.9125 6.14815 10.8075 5.95556C10.7025 5.76296 10.65 5.55556 10.65 5.33333C10.65 4.96296 10.7813 4.64815 11.0438 4.38889C11.3063 4.12963 11.625 4 12 4C12.375 4 12.6938 4.12963 12.9563 4.38889C13.2188 4.64815 13.35 4.96296 13.35 5.33333C13.35 5.55556 13.2975 5.76296 13.1925 5.95556C13.0875 6.14815 12.9525 6.3037 12.7875 6.42222L15.6 10.2222L18.4125 8.97778C18.3825 8.9037 18.3563 8.82222 18.3338 8.73333C18.3113 8.64444 18.3 8.54815 18.3 8.44444C18.3 8.07407 18.4313 7.75926 18.6938 7.5C18.9563 7.24074 19.275 7.11111 19.65 7.11111C20.025 7.11111 20.3438 7.24074 20.6063 7.5C20.8688 7.75926 21 8.07407 21 8.44444C21 8.81482 20.8688 9.12963 20.6063 9.38889C20.3438 9.64815 20.025 9.77778 19.65 9.77778C19.62 9.77778 19.5863 9.77407 19.5487 9.76667C19.5113 9.75926 19.4775 9.75556 19.4475 9.75556L18.3 16.8889H5.7ZM7.23 15.1111H16.77L17.355 11.4L14.9925 12.4222L12 8.35556L9.0075 12.4222L6.645 11.4L7.23 15.1111Z" fill="#764BF6"/>
</svg>
