<svg width="24" height="24" viewBox="0 0 24 24" fill="none" xmlns="http://www.w3.org/2000/svg">
<mask id="path-1-outside-1_4615_5001" maskUnits="userSpaceOnUse" x="1.02734" y="11" width="16" height="8" fill="black">
<rect fill="white" x="1.02734" y="11" width="16" height="8"/>
<path fill-rule="evenodd" clip-rule="evenodd" d="M14.0988 18C14.6511 18 15.1076 17.5489 15.0156 17.0043C14.5356 14.1645 12.0373 12 9.02739 12C6.0175 12 3.51916 14.1645 3.03921 17.0043C2.94717 17.5489 3.4037 18 3.95599 18H14.0988Z"/>
</mask>
<path fill-rule="evenodd" clip-rule="evenodd" d="M14.0988 18C14.6511 18 15.1076 17.5489 15.0156 17.0043C14.5356 14.1645 12.0373 12 9.02739 12C6.0175 12 3.51916 14.1645 3.03921 17.0043C2.94717 17.5489 3.4037 18 3.95599 18H14.0988Z" fill="#9EA4AA"/>
<path d="M9.02739 13C11.5498 13 13.631 14.8127 14.0296 17.1709L16.0016 16.8377C15.4403 13.5162 12.5248 11 9.02739 11V13ZM4.02522 17.1709C4.42378 14.8127 6.50502 13 9.02739 13V11C5.52998 11 2.61454 13.5162 2.05319 16.8377L4.02522 17.1709ZM3.95599 19H14.0988V17H3.95599V19ZM2.05319 16.8377C1.83868 18.1069 2.90675 19 3.95599 19V17C3.95073 17 3.96182 16.9974 3.98127 17.0179C3.99228 17.0295 4.00722 17.0503 4.01734 17.0816C4.0281 17.1148 4.02922 17.1473 4.02522 17.1709L2.05319 16.8377ZM14.0296 17.1709C14.0256 17.1473 14.0267 17.1148 14.0374 17.0816C14.0476 17.0503 14.0625 17.0295 14.0735 17.0179C14.093 16.9974 14.1041 17 14.0988 17V19C15.148 19 16.2161 18.1069 16.0016 16.8377L14.0296 17.1709Z" fill="white" mask="url(#path-1-outside-1_4615_5001)"/>
<circle cx="9.02832" cy="7" r="3.5" fill="#9EA4AA" stroke="white"/>
<mask id="path-4-outside-2_4615_5001" maskUnits="userSpaceOnUse" x="7.0293" y="11" width="16" height="8" fill="black">
<rect fill="white" x="7.0293" y="11" width="16" height="8"/>
<path fill-rule="evenodd" clip-rule="evenodd" d="M20.1008 18C20.653 18 21.1096 17.5489 21.0175 17.0043C20.5376 14.1645 18.0392 12 15.0293 12C12.0195 12 9.52111 14.1645 9.04116 17.0043C8.94912 17.5489 9.40566 18 9.95794 18H20.1008Z"/>
</mask>
<path fill-rule="evenodd" clip-rule="evenodd" d="M20.1008 18C20.653 18 21.1096 17.5489 21.0175 17.0043C20.5376 14.1645 18.0392 12 15.0293 12C12.0195 12 9.52111 14.1645 9.04116 17.0043C8.94912 17.5489 9.40566 18 9.95794 18H20.1008Z" fill="#9EA4AA"/>
<path d="M15.0293 13C17.5517 13 19.633 14.8127 20.0315 17.1709L22.0036 16.8377C21.4422 13.5162 18.5268 11 15.0293 11V13ZM10.0272 17.1709C10.4257 14.8127 12.507 13 15.0293 13V11C11.5319 11 8.61649 13.5162 8.05514 16.8377L10.0272 17.1709ZM9.95794 19H20.1008V17H9.95794V19ZM8.05514 16.8377C7.84063 18.1069 8.9087 19 9.95794 19V17C9.95268 17 9.96377 16.9974 9.98323 17.0179C9.99424 17.0295 10.0092 17.0503 10.0193 17.0816C10.0301 17.1148 10.0312 17.1473 10.0272 17.1709L8.05514 16.8377ZM20.0315 17.1709C20.0275 17.1473 20.0286 17.1148 20.0394 17.0816C20.0495 17.0503 20.0645 17.0295 20.0755 17.0179C20.0949 16.9974 20.106 17 20.1008 17V19C21.15 19 22.2181 18.1069 22.0036 16.8377L20.0315 17.1709Z" fill="white" mask="url(#path-4-outside-2_4615_5001)"/>
<circle cx="15.0283" cy="7" r="3.5" fill="#9EA4AA" stroke="white"/>
</svg>
