<svg width="40" height="37" viewBox="0 0 40 37" fill="none" xmlns="http://www.w3.org/2000/svg">
<g filter="url(#filter0_dd_3424_42725)">
<path d="M20.1501 32L7.38471 19.0809C4.2051 15.8607 4.2051 10.6352 7.38471 7.4151C10.5643 4.19497 15.723 4.19497 18.9026 7.4151L20.1407 8.66845L21.0974 7.6947C24.277 4.47456 29.4357 4.47456 32.6153 7.6947C35.7949 10.9148 35.7949 16.1403 32.6153 19.3605L20.1313 31.9904L20.1501 32Z" fill="#191919" fill-opacity="0.4" shape-rendering="crispEdges"/>
<path d="M20.1501 32L7.38471 19.0809C4.2051 15.8607 4.2051 10.6352 7.38471 7.4151C10.5643 4.19497 15.723 4.19497 18.9026 7.4151L20.1407 8.66845L21.0974 7.6947C24.277 4.47456 29.4357 4.47456 32.6153 7.6947C35.7949 10.9148 35.7949 16.1403 32.6153 19.3605L20.1313 31.9904L20.1501 32Z" stroke="white" stroke-width="2" stroke-linecap="round" stroke-linejoin="round" shape-rendering="crispEdges"/>
</g>
<defs>
<filter id="filter0_dd_3424_42725" x="0" y="0" width="40" height="37" filterUnits="userSpaceOnUse" color-interpolation-filters="sRGB">
<feFlood flood-opacity="0" result="BackgroundImageFix"/>
<feColorMatrix in="SourceAlpha" type="matrix" values="0 0 0 0 0 0 0 0 0 0 0 0 0 0 0 0 0 0 127 0" result="hardAlpha"/>
<feOffset/>
<feGaussianBlur stdDeviation="2"/>
<feComposite in2="hardAlpha" operator="out"/>
<feColorMatrix type="matrix" values="0 0 0 0 0 0 0 0 0 0 0 0 0 0 0 0 0 0 0.2 0"/>
<feBlend mode="normal" in2="BackgroundImageFix" result="effect1_dropShadow_3424_42725"/>
<feColorMatrix in="SourceAlpha" type="matrix" values="0 0 0 0 0 0 0 0 0 0 0 0 0 0 0 0 0 0 127 0" result="hardAlpha"/>
<feOffset dx="-1"/>
<feGaussianBlur stdDeviation="0.5"/>
<feComposite in2="hardAlpha" operator="out"/>
<feColorMatrix type="matrix" values="0 0 0 0 0 0 0 0 0 0 0 0 0 0 0 0 0 0 0.04 0"/>
<feBlend mode="normal" in2="effect1_dropShadow_3424_42725" result="effect2_dropShadow_3424_42725"/>
<feBlend mode="normal" in="SourceGraphic" in2="effect2_dropShadow_3424_42725" result="shape"/>
</filter>
</defs>
</svg>
