<svg width="20" height="20" viewBox="0 0 20 20" fill="none" xmlns="http://www.w3.org/2000/svg">
<g clip-path="url(#clip0_1688_14132)">
<path d="M17.7656 16.6336C17.8399 16.708 17.8988 16.7962 17.9391 16.8933C17.9793 16.9904 18 17.0945 18 17.1996C18 17.3047 17.9793 17.4088 17.9391 17.5059C17.8988 17.603 17.8399 17.6912 17.7656 17.7656C17.6912 17.8399 17.603 17.8988 17.5059 17.9391C17.4088 17.9793 17.3047 18 17.1996 18C17.0945 18 16.9904 17.9793 16.8933 17.9391C16.7962 17.8988 16.708 17.8399 16.6336 17.7656L10 11.1309L3.36637 17.7656C3.21626 17.9157 3.01268 18 2.8004 18C2.58812 18 2.38454 17.9157 2.23443 17.7656C2.08433 17.6155 2 17.4119 2 17.1996C2 16.9873 2.08433 16.7837 2.23443 16.6336L8.86906 10L2.23443 3.36637C2.08433 3.21626 2 3.01268 2 2.8004C2 2.58812 2.08433 2.38454 2.23443 2.23443C2.38454 2.08433 2.58812 2 2.8004 2C3.01268 2 3.21626 2.08433 3.36637 2.23443L10 8.86906L16.6336 2.23443C16.7837 2.08433 16.9873 2 17.1996 2C17.4119 2 17.6155 2.08433 17.7656 2.23443C17.9157 2.38454 18 2.58812 18 2.8004C18 3.01268 17.9157 3.21626 17.7656 3.36637L11.1309 10L17.7656 16.6336Z" fill="#72787F" stroke="#72787F" stroke-width="0.5"/>
</g>
<defs>
<clipPath id="clip0_1688_14132">
<rect width="20" height="20" fill="white"/>
</clipPath>
</defs>
</svg>
