<svg width="16" height="16" viewBox="0 0 16 16" fill="none" xmlns="http://www.w3.org/2000/svg">
<path d="M15.3242 3.54373L5.7246 13.3208C5.66888 13.3776 5.60271 13.4227 5.52987 13.4534C5.45704 13.4842 5.37897 13.5 5.30012 13.5C5.22127 13.5 5.1432 13.4842 5.07037 13.4534C4.99753 13.4227 4.93136 13.3776 4.87564 13.3208L0.675826 9.04332C0.563246 8.92866 0.5 8.77315 0.5 8.61099C0.5 8.44884 0.563246 8.29333 0.675826 8.17867C0.788405 8.064 0.941096 7.99959 1.10031 7.99959C1.25952 7.99959 1.41221 8.064 1.52479 8.17867L5.30012 12.0246L14.4752 2.67908C14.5878 2.56442 14.7405 2.5 14.8997 2.5C15.0589 2.5 15.2116 2.56442 15.3242 2.67908C15.4368 2.79374 15.5 2.94925 15.5 3.11141C15.5 3.27356 15.4368 3.42907 15.3242 3.54373Z" fill="#764BF6" stroke="#764BF6" stroke-width="0.5"/>
</svg>
