<svg width="21" height="16" viewBox="0 0 21 16" fill="none" xmlns="http://www.w3.org/2000/svg">
<mask id="path-1-outside-1_7153_14810" maskUnits="userSpaceOnUse" x="-0.972656" y="8" width="16" height="8" fill="black">
<rect fill="white" x="-0.972656" y="8" width="16" height="8"/>
<path d="M7.02728 9C10.0372 9 12.5354 11.1645 13.0154 14.0043C13.1074 14.5489 12.6509 15 12.0986 15H1.95599C1.40371 15 0.947173 14.5489 1.03921 14.0043C1.51914 11.1645 4.01741 9.00002 7.02728 9Z"/>
</mask>
<path d="M7.02728 9C10.0372 9 12.5354 11.1645 13.0154 14.0043C13.1074 14.5489 12.6509 15 12.0986 15H1.95599C1.40371 15 0.947173 14.5489 1.03921 14.0043C1.51914 11.1645 4.01741 9.00002 7.02728 9Z" fill="#9EA4AA"/>
<path d="M7.02728 9V8H7.02727L7.02728 9ZM7.02728 9V10C9.54964 10 11.6308 11.8127 12.0293 14.1709L13.0154 14.0043L14.0014 13.8377C13.4401 10.5162 10.5247 8 7.02728 8V9ZM12.0986 15V14H1.95599V15V16H12.0986V15ZM1.03921 14.0043L2.02522 14.1709C2.42377 11.8127 4.50494 10 7.02729 10L7.02728 9L7.02727 8C3.52987 8.00003 0.614518 10.5162 0.0531885 13.8377L1.03921 14.0043ZM1.95599 15V14C1.95073 14 1.96182 13.9974 1.98128 14.0179C1.99228 14.0295 2.00722 14.0503 2.01734 14.0816C2.0281 14.1148 2.02922 14.1473 2.02522 14.1709L1.03921 14.0043L0.0531885 13.8377C-0.161319 15.1069 0.906748 16 1.95599 16V15ZM13.0154 14.0043L12.0293 14.1709C12.0253 14.1473 12.0265 14.1148 12.0372 14.0816C12.0473 14.0503 12.0623 14.0295 12.0733 14.0179C12.0927 13.9974 12.1038 14 12.0986 14V15V16C13.1478 16 14.2159 15.1069 14.0014 13.8377L13.0154 14.0043Z" fill="#F7F8F9" mask="url(#path-1-outside-1_7153_14810)"/>
<circle cx="7.02734" cy="4" r="3.5" fill="#9EA4AA" stroke="#F7F8F9"/>
<mask id="path-4-outside-2_7153_14810" maskUnits="userSpaceOnUse" x="5.0293" y="8" width="16" height="8" fill="black">
<rect fill="white" x="5.0293" y="8" width="16" height="8"/>
<path d="M13.0292 9C16.0391 9 18.5374 11.1645 19.0173 14.0043C19.1093 14.5489 18.6528 15 18.1005 15H7.95794C7.40566 15 6.94913 14.5489 7.04116 14.0043C7.5211 11.1645 10.0194 9.00002 13.0292 9Z"/>
</mask>
<path d="M13.0292 9C16.0391 9 18.5374 11.1645 19.0173 14.0043C19.1093 14.5489 18.6528 15 18.1005 15H7.95794C7.40566 15 6.94913 14.5489 7.04116 14.0043C7.5211 11.1645 10.0194 9.00002 13.0292 9Z" fill="#9EA4AA"/>
<path d="M13.0292 9V8H13.0292L13.0292 9ZM13.0292 9V10C15.5516 10 17.6327 11.8127 18.0313 14.1709L19.0173 14.0043L20.0033 13.8377C19.442 10.5162 16.5267 8 13.0292 8V9ZM18.1005 15V14H7.95794V15V16H18.1005V15ZM7.04116 14.0043L8.02718 14.1709C8.42572 11.8127 10.5069 10 13.0292 10L13.0292 9L13.0292 8C9.53183 8.00003 6.61647 10.5162 6.05514 13.8377L7.04116 14.0043ZM7.95794 15V14C7.95269 14 7.96377 13.9974 7.98323 14.0179C7.99424 14.0295 8.00917 14.0503 8.01929 14.0816C8.03005 14.1148 8.03117 14.1473 8.02718 14.1709L7.04116 14.0043L6.05514 13.8377C5.84063 15.1069 6.9087 16 7.95794 16V15ZM19.0173 14.0043L18.0313 14.1709C18.0273 14.1473 18.0284 14.1148 18.0392 14.0816C18.0493 14.0503 18.0642 14.0295 18.0752 14.0179C18.0947 13.9974 18.1058 14 18.1005 14V15V16C19.1498 16 20.2178 15.1069 20.0033 13.8377L19.0173 14.0043Z" fill="#F7F8F9" mask="url(#path-4-outside-2_7153_14810)"/>
<circle cx="13.0273" cy="4" r="3.5" fill="#9EA4AA" stroke="#F7F8F9"/>
</svg>
