<svg width="38" height="35" viewBox="0 0 38 35" fill="none" xmlns="http://www.w3.org/2000/svg">
<g filter="url(#filter0_dd_12463_60480)">
<path d="M19.1347 29.4453L7.78771 17.9616C4.96139 15.0993 4.96139 10.4544 7.78771 7.59207C10.614 4.72973 15.1995 4.72973 18.0258 7.59207L19.1264 8.70616L19.9768 7.8406C22.8031 4.97825 27.3886 4.97825 30.2149 7.8406C33.0412 10.7029 33.0412 15.3478 30.2149 18.2102L19.118 29.4367L19.1347 29.4453Z" fill="#F94E51"/>
<path d="M19.1347 29.4453L7.78771 17.9616C4.96139 15.0993 4.96139 10.4544 7.78771 7.59207C10.614 4.72973 15.1995 4.72973 18.0258 7.59207L19.1264 8.70616L19.9768 7.8406C22.8031 4.97825 27.3886 4.97825 30.2149 7.8406C33.0412 10.7029 33.0412 15.3478 30.2149 18.2102L19.118 29.4367L19.1347 29.4453Z" stroke="white" stroke-width="2" stroke-linecap="round" stroke-linejoin="round"/>
</g>
<defs>
<filter id="filter0_dd_12463_60480" x="0.667969" y="0.445312" width="36.668" height="34" filterUnits="userSpaceOnUse" color-interpolation-filters="sRGB">
<feFlood flood-opacity="0" result="BackgroundImageFix"/>
<feColorMatrix in="SourceAlpha" type="matrix" values="0 0 0 0 0 0 0 0 0 0 0 0 0 0 0 0 0 0 127 0" result="hardAlpha"/>
<feOffset/>
<feGaussianBlur stdDeviation="2"/>
<feComposite in2="hardAlpha" operator="out"/>
<feColorMatrix type="matrix" values="0 0 0 0 0 0 0 0 0 0 0 0 0 0 0 0 0 0 0.2 0"/>
<feBlend mode="normal" in2="BackgroundImageFix" result="effect1_dropShadow_12463_60480"/>
<feColorMatrix in="SourceAlpha" type="matrix" values="0 0 0 0 0 0 0 0 0 0 0 0 0 0 0 0 0 0 127 0" result="hardAlpha"/>
<feOffset dx="-1"/>
<feGaussianBlur stdDeviation="0.5"/>
<feComposite in2="hardAlpha" operator="out"/>
<feColorMatrix type="matrix" values="0 0 0 0 0 0 0 0 0 0 0 0 0 0 0 0 0 0 0.04 0"/>
<feBlend mode="normal" in2="effect1_dropShadow_12463_60480" result="effect2_dropShadow_12463_60480"/>
<feBlend mode="normal" in="SourceGraphic" in2="effect2_dropShadow_12463_60480" result="shape"/>
</filter>
</defs>
</svg>
