<svg width="24" height="24" viewBox="0 0 24 24" fill="none" xmlns="http://www.w3.org/2000/svg">
<path fill-rule="evenodd" clip-rule="evenodd" d="M12.6551 19.7332C14.395 18.0534 19 13.3061 19 10.1177C19 6.18669 15.866 3 12 3C8.13401 3 5 6.18669 5 10.1177C5 13.3061 9.60504 18.0534 11.3449 19.7332C11.7131 20.0886 12.2869 20.0886 12.6551 19.7332ZM11.9571 12.1935C13.2247 12.1935 14.2523 11.1659 14.2523 9.89826C14.2523 8.63062 13.2247 7.603 11.9571 7.603C10.6894 7.603 9.66182 8.63062 9.66182 9.89826C9.66182 11.1659 10.6894 12.1935 11.9571 12.1935Z" fill="#9EA4AA"/>
</svg>
