<svg width="24" height="24" viewBox="0 0 24 24" fill="none" xmlns="http://www.w3.org/2000/svg">
<g clip-path="url(#clip0_11896_125833)">
<path d="M22.6777 21.1212C22.7799 21.2234 22.8609 21.3448 22.9162 21.4783C22.9715 21.6118 23 21.7549 23 21.8994C23 22.044 22.9715 22.1871 22.9162 22.3206C22.8609 22.4541 22.7799 22.5755 22.6777 22.6777C22.5755 22.7799 22.4541 22.8609 22.3206 22.9162C22.1871 22.9715 22.044 23 21.8994 23C21.7549 23 21.6118 22.9715 21.4783 22.9162C21.3448 22.8609 21.2234 22.7799 21.1212 22.6777L12 13.555L2.87876 22.6777C2.67236 22.884 2.39243 23 2.10055 23C1.80867 23 1.52874 22.884 1.32234 22.6777C1.11595 22.4713 1 22.1913 1 21.8994C1 21.6076 1.11595 21.3276 1.32234 21.1212L10.445 12L1.32234 2.87876C1.11595 2.67236 1 2.39243 1 2.10055C1 1.80867 1.11595 1.52874 1.32234 1.32234C1.52874 1.11595 1.80867 1 2.10055 1C2.39243 1 2.67236 1.11595 2.87876 1.32234L12 10.445L21.1212 1.32234C21.3276 1.11595 21.6076 1 21.8994 1C22.1913 1 22.4713 1.11595 22.6777 1.32234C22.884 1.52874 23 1.80867 23 2.10055C23 2.39243 22.884 2.67236 22.6777 2.87876L13.555 12L22.6777 21.1212Z" fill="white" stroke="white" stroke-width="0.5"/>
</g>
<defs>
<clipPath id="clip0_11896_125833">
<rect width="24" height="24" fill="white"/>
</clipPath>
</defs>
</svg>
