<svg width="16" height="16" viewBox="0 0 16 16" fill="none" xmlns="http://www.w3.org/2000/svg">
<path d="M14.8476 3.85396L6.52799 11.8534C6.4797 11.8999 6.42235 11.9367 6.35922 11.9619C6.2961 11.9871 6.22844 12 6.1601 12C6.09177 12 6.02411 11.9871 5.96098 11.9619C5.89786 11.9367 5.84051 11.8999 5.79222 11.8534L2.15238 8.35363C2.05481 8.25982 2 8.13258 2 7.99991C2 7.86723 2.05481 7.73999 2.15238 7.64618C2.24995 7.55237 2.38228 7.49966 2.52027 7.49966C2.65825 7.49966 2.79058 7.55237 2.88815 7.64618L6.1601 10.7928L14.1118 3.14652C14.2094 3.0527 14.3418 3 14.4797 3C14.6177 3 14.75 3.0527 14.8476 3.14652C14.9452 3.24033 15 3.36757 15 3.50024C15 3.63291 14.9452 3.76015 14.8476 3.85396Z" fill="#764BF6" stroke="#764BF6" stroke-width="0.5"/>
</svg>
